<svg width="30" height="30" viewBox="0 0 30 30" fill="none" xmlns="http://www.w3.org/2000/svg">
<path fill-rule="evenodd" clip-rule="evenodd" d="M19.85 26.15C19.8875 26.35 19.7749 26.5625 19.5874 26.6375C18.1749 27.2 16.625 27.5 15.025 27.5C12.2625 27.5 9.71246 26.6125 7.64996 25.0875C7.47496 24.9625 7.425 24.7125 7.5375 24.525C8.225 23.3 10.9124 19.3625 16.8499 17.1625C17.0749 17.075 17.3249 17.1875 17.3999 17.4125C18.8874 21.4 19.5875 24.775 19.85 26.15Z" fill="#7562E0"/>
<path fill-rule="evenodd" clip-rule="evenodd" d="M27.275 17.3626C26.7 20.4376 24.975 23.1126 22.5625 24.9376C22.3 25.1376 21.925 24.9875 21.8625 24.675C21.6 23.325 20.9625 20.4125 19.7375 16.95C19.65 16.6875 19.8251 16.4 20.1001 16.3625C23.2126 15.9875 25.9375 16.5875 26.9625 16.8625C27.175 16.9375 27.3125 17.1501 27.275 17.3626Z" fill="#7562E0"/>
<path fill-rule="evenodd" clip-rule="evenodd" d="M26.9876 14.7751C25.7126 14.5501 22.4625 14.075 19.1375 14.4375C18.9375 14.4625 18.7625 14.35 18.675 14.1625C18.625 14.05 18.5875 13.9376 18.5375 13.8251C18.3375 13.3626 18.125 12.8876 17.9125 12.4251C17.8 12.2001 17.9125 11.925 18.1375 11.825C21.6375 10.3125 23.5875 8.36255 24.35 7.48755C24.5375 7.27505 24.8626 7.28757 25.0376 7.51257C26.4751 9.42507 27.3625 11.7625 27.5 14.2875C27.5125 14.6 27.2626 14.8251 26.9876 14.7751Z" fill="#7562E0"/>
<path fill-rule="evenodd" clip-rule="evenodd" d="M23.05 5.98745C22.4 6.77495 20.575 8.64993 17.1125 10.0249C16.9125 10.1124 16.675 10.0249 16.5625 9.82492C14.9625 6.92492 13.2625 4.48743 12.475 3.38743C12.2875 3.12493 12.4375 2.74994 12.75 2.69994C13.475 2.57494 14.2375 2.51245 15.0125 2.51245C18.0375 2.51245 20.825 3.58744 22.9875 5.38744C23.175 5.52494 23.2 5.79995 23.05 5.98745Z" fill="#7562E0"/>
<path fill-rule="evenodd" clip-rule="evenodd" d="M13.775 11.05C9.03753 12.2375 4.84997 12.4 3.32497 12.425C3.03747 12.425 2.82501 12.15 2.90001 11.875C3.80001 8.37502 6.19999 5.45002 9.36249 3.83752C9.54999 3.73752 9.78749 3.80001 9.91249 3.97501C10.5625 4.87501 12.325 7.41252 14.05 10.4C14.1875 10.65 14.0625 10.975 13.775 11.05Z" fill="#7562E0"/>
<path fill-rule="evenodd" clip-rule="evenodd" d="M16.15 14.5C16.2625 14.7375 16.125 15.025 15.875 15.1125C10.3375 16.9 7.02501 21.3375 6.02501 22.8625C5.86251 23.1125 5.51251 23.125 5.32501 22.9C3.57501 20.75 2.51251 18.2875 2.51251 15.3V15.075C2.51251 14.825 2.71249 14.625 2.96249 14.6375C4.53749 14.7 9.67501 14.4875 15.0125 12.95C15.2125 12.8875 15.4375 12.9875 15.525 13.175C15.7375 13.6125 15.95 14.05 16.15 14.5Z" fill="#7562E0"/>
</svg>
