<svg width="54" height="55" viewBox="0 0 54 55" fill="none" xmlns="http://www.w3.org/2000/svg">
<path d="M15.3791 16.2966H16.3791V15.2966V5.1801C16.3791 3.38947 17.6286 1.90494 19.2773 1.63099C24.4327 0.796342 29.6911 0.796342 34.8465 1.63099C36.4952 1.90494 37.7446 3.38947 37.7446 5.1801V9.79851C37.7446 9.92901 37.6971 10.024 37.6407 10.083C37.5855 10.1406 37.5146 10.173 37.429 10.173H36.1134C34.7835 10.173 33.7978 11.2673 33.7978 12.5476V21.3996C33.7978 21.9886 33.3626 22.3789 32.9033 22.3789H21.2205C15.2333 22.3789 10.4323 27.4593 10.4323 33.6054V38.3338C10.4323 38.4643 10.3847 38.5593 10.3283 38.6183C10.2731 38.6759 10.2022 38.7083 10.1166 38.7083H5.69617C4.07091 38.7083 2.61776 37.4589 2.34353 35.656C1.54263 30.2564 1.54264 24.7485 2.34354 19.3488C2.6178 17.5461 4.07094 16.2966 5.69617 16.2966H15.3791ZM19.5627 7.65424C19.5627 8.51668 19.9494 9.30503 20.4882 9.86797C21.0252 10.429 21.7989 10.8535 22.6677 10.8535C23.5433 10.8535 24.3234 10.4345 24.8673 9.87101C25.4118 9.30684 25.799 8.5172 25.799 7.65424C25.799 6.82312 25.4391 5.93617 24.8517 5.35598C24.296 4.78264 23.4629 4.42751 22.6677 4.42751C21.7982 4.42751 21.0234 4.85261 20.4853 5.41947C19.9446 5.98913 19.5627 6.78396 19.5627 7.65424Z" stroke="white" stroke-width="2"/>
<path d="M38.7446 38.7084H37.7446V39.7084V49.8249C37.7446 51.6154 36.4955 53.0998 34.8469 53.374C29.6913 54.2087 24.4325 54.2087 19.2768 53.374C17.6283 53.0998 16.3792 51.6154 16.3792 49.8249V33.6055C16.3792 30.7347 18.5772 28.5025 21.2205 28.5025H32.9033C36.7357 28.5025 39.7446 25.261 39.7446 21.3996V16.6712C39.7446 16.5407 39.7922 16.4457 39.8486 16.3868C39.9038 16.3291 39.9747 16.2967 40.0603 16.2967H48.4276C50.0531 16.2967 51.5064 17.5465 51.7804 19.3497C52.5811 24.7489 52.5811 30.2563 51.7803 35.6555C51.5064 37.4586 50.0531 38.7084 48.4276 38.7084H38.7446ZM33.6278 45.0129L33.6259 45.0111C33.0751 44.4767 32.2217 44.1241 31.4561 44.1241C30.5799 44.1241 29.7986 44.5436 29.2536 45.113C28.7071 45.6839 28.3247 46.48 28.3247 47.3508C28.3247 48.229 28.7198 49.0253 29.2663 49.5916C29.81 50.1548 30.5893 50.5775 31.4561 50.5775C32.3266 50.5775 33.1013 50.1515 33.6417 49.5821C34.1855 49.0093 34.5678 48.2153 34.5872 47.3455L34.5874 47.3344V47.3233C34.5874 46.5202 34.2268 45.5971 33.6278 45.0129Z" stroke="white" stroke-width="2"/>
</svg>
