<svg width="44" height="48" viewBox="0 0 44 48" fill="none" xmlns="http://www.w3.org/2000/svg">
<g filter="url(#filter0_d_3_44)">
<mask id="path-1-inside-1_3_44" fill="white">
<path d="M33.3225 39.8125H26.3225C22.0875 39.8125 19.76 37.485 19.76 33.25V8.75C19.76 4.515 22.0875 2.1875 26.3225 2.1875H33.3225C37.5575 2.1875 39.885 4.515 39.885 8.75V33.25C39.885 37.485 37.54 39.8125 33.3225 39.8125ZM26.3225 4.8125C23.5575 4.8125 22.385 5.985 22.385 8.75V33.25C22.385 36.015 23.5575 37.1875 26.3225 37.1875H33.3225C36.0875 37.1875 37.26 36.015 37.26 33.25V8.75C37.26 5.985 36.0875 4.8125 33.3225 4.8125H26.3225Z"/>
</mask>
<path d="M33.3225 36.8125H26.3225V42.8125H33.3225V36.8125ZM26.3225 36.8125C24.7395 36.8125 23.962 36.3856 23.5745 35.9981C23.1869 35.6105 22.76 34.833 22.76 33.25H16.76C16.76 35.902 17.4969 38.4057 19.3318 40.2407C21.1668 42.0756 23.6705 42.8125 26.3225 42.8125V36.8125ZM22.76 33.25V8.75H16.76V33.25H22.76ZM22.76 8.75C22.76 7.16696 23.1869 6.38949 23.5745 6.00195C23.962 5.6144 24.7395 5.1875 26.3225 5.1875V-0.8125C23.6705 -0.8125 21.1668 -0.0756502 19.3318 1.7593C17.4969 3.59426 16.76 6.09804 16.76 8.75H22.76ZM26.3225 5.1875H33.3225V-0.8125H26.3225V5.1875ZM33.3225 5.1875C34.9055 5.1875 35.683 5.6144 36.0706 6.00195C36.4581 6.38949 36.885 7.16696 36.885 8.75H42.885C42.885 6.09804 42.1482 3.59426 40.3132 1.7593C38.4782 -0.0756502 35.9745 -0.8125 33.3225 -0.8125V5.1875ZM36.885 8.75V33.25H42.885V8.75H36.885ZM36.885 33.25C36.885 34.8271 36.457 35.6058 36.0661 35.996C35.6742 36.3871 34.8938 36.8125 33.3225 36.8125V42.8125C35.9687 42.8125 38.4696 42.0741 40.3046 40.2428C42.1405 38.4104 42.885 35.9079 42.885 33.25H36.885ZM26.3225 1.8125C24.6012 1.8125 22.6536 2.16505 21.1956 3.62305C19.7376 5.08106 19.385 7.0287 19.385 8.75H25.385C25.385 7.7063 25.6187 7.68519 25.4382 7.8657C25.2577 8.0462 25.2788 7.8125 26.3225 7.8125V1.8125ZM19.385 8.75V33.25H25.385V8.75H19.385ZM19.385 33.25C19.385 34.9713 19.7376 36.9189 21.1956 38.3769C22.6536 39.8349 24.6012 40.1875 26.3225 40.1875V34.1875C25.2788 34.1875 25.2577 33.9538 25.4382 34.1343C25.6187 34.3148 25.385 34.2937 25.385 33.25H19.385ZM26.3225 40.1875H33.3225V34.1875H26.3225V40.1875ZM33.3225 40.1875C35.0438 40.1875 36.9914 39.8349 38.4495 38.3769C39.9075 36.9189 40.26 34.9713 40.26 33.25H34.26C34.26 34.2937 34.0263 34.3148 34.2068 34.1343C34.3873 33.9538 34.3662 34.1875 33.3225 34.1875V40.1875ZM40.26 33.25V8.75H34.26V33.25H40.26ZM40.26 8.75C40.26 7.0287 39.9075 5.08106 38.4495 3.62305C36.9914 2.16505 35.0438 1.8125 33.3225 1.8125V7.8125C34.3662 7.8125 34.3873 8.0462 34.2068 7.8657C34.0263 7.68519 34.26 7.7063 34.26 8.75H40.26ZM33.3225 1.8125H26.3225V7.8125H33.3225V1.8125Z" fill="white" mask="url(#path-1-inside-1_3_44)"/>
<mask id="path-3-inside-2_3_44" fill="white">
<path d="M29.8225 11.8125H21.0725C20.355 11.8125 19.76 11.2175 19.76 10.5C19.76 9.7825 20.355 9.1875 21.0725 9.1875H29.8225C30.54 9.1875 31.135 9.7825 31.135 10.5C31.135 11.2175 30.54 11.8125 29.8225 11.8125Z"/>
</mask>
<path d="M29.8225 8.8125H21.0725V14.8125H29.8225V8.8125ZM21.0725 8.8125C22.0119 8.8125 22.76 9.56065 22.76 10.5H16.76C16.76 12.8744 18.6982 14.8125 21.0725 14.8125V8.8125ZM22.76 10.5C22.76 11.4394 22.0119 12.1875 21.0725 12.1875V6.1875C18.6982 6.1875 16.76 8.12565 16.76 10.5H22.76ZM21.0725 12.1875H29.8225V6.1875H21.0725V12.1875ZM29.8225 12.1875C28.8832 12.1875 28.135 11.4394 28.135 10.5H34.135C34.135 8.12565 32.1969 6.1875 29.8225 6.1875V12.1875ZM28.135 10.5C28.135 9.56065 28.8832 8.8125 29.8225 8.8125V14.8125C32.1969 14.8125 34.135 12.8744 34.135 10.5H28.135Z" fill="white" mask="url(#path-3-inside-2_3_44)"/>
<mask id="path-5-inside-3_3_44" fill="white">
<path d="M28.0725 32.8125H21.0725C20.355 32.8125 19.76 32.2175 19.76 31.5C19.76 30.7825 20.355 30.1875 21.0725 30.1875H28.0725C28.79 30.1875 29.385 30.7825 29.385 31.5C29.385 32.2175 28.79 32.8125 28.0725 32.8125Z"/>
</mask>
<path d="M28.0725 29.8125H21.0725V35.8125H28.0725V29.8125ZM21.0725 29.8125C22.0119 29.8125 22.76 30.5606 22.76 31.5H16.76C16.76 33.8744 18.6982 35.8125 21.0725 35.8125V29.8125ZM22.76 31.5C22.76 32.4394 22.0119 33.1875 21.0725 33.1875V27.1875C18.6982 27.1875 16.76 29.1256 16.76 31.5H22.76ZM21.0725 33.1875H28.0725V27.1875H21.0725V33.1875ZM28.0725 33.1875C27.1332 33.1875 26.385 32.4393 26.385 31.5H32.385C32.385 29.1257 30.4469 27.1875 28.0725 27.1875V33.1875ZM26.385 31.5C26.385 30.5607 27.1332 29.8125 28.0725 29.8125V35.8125C30.4469 35.8125 32.385 33.8743 32.385 31.5H26.385Z" fill="white" mask="url(#path-5-inside-3_3_44)"/>
<mask id="path-7-inside-4_3_44" fill="white">
<path d="M29.8225 25.8125C29.805 25.8125 29.805 25.8125 29.8225 25.8125L21.055 25.725C20.3375 25.725 19.7425 25.13 19.76 24.395C19.76 23.6775 20.355 23.1 21.0725 23.1C21.0725 23.1 21.0725 23.1 21.09 23.1L29.84 23.1875C30.5575 23.1875 31.1525 23.7825 31.135 24.5175C31.1175 25.235 30.54 25.8125 29.8225 25.8125Z"/>
</mask>
<path d="M29.8225 25.8125V28.8125L29.8525 22.8126L29.8225 25.8125ZM21.055 25.725L21.085 22.7251L21.07 22.725H21.055V25.725ZM19.76 24.395L22.7592 24.4664L22.76 24.4307V24.395H19.76ZM21.09 23.1L21.12 20.1001L21.105 20.1H21.09V23.1ZM29.84 23.1875L29.81 26.1873L29.825 26.1875H29.84V23.1875ZM31.135 24.5175L34.1341 24.5906L34.1342 24.5889L31.135 24.5175ZM29.8225 22.8125C29.8225 22.8125 29.8224 22.8125 29.8224 22.8125C29.8224 22.8125 29.8223 22.8125 29.8223 22.8125C29.8223 22.8125 29.8222 22.8125 29.8222 22.8125C29.8222 22.8125 29.8221 22.8125 29.8221 22.8125C29.8221 22.8125 29.822 22.8125 29.822 22.8125C29.822 22.8125 29.8219 22.8125 29.8219 22.8125C29.8219 22.8125 29.8218 22.8125 29.8218 22.8125C29.8218 22.8125 29.8217 22.8125 29.8217 22.8125C29.8217 22.8125 29.8216 22.8125 29.8216 22.8125C29.8216 22.8125 29.8215 22.8125 29.8215 22.8125C29.8215 22.8125 29.8214 22.8125 29.8214 22.8125C29.8214 22.8125 29.8213 22.8125 29.8213 22.8125C29.8213 22.8125 29.8212 22.8125 29.8212 22.8125C29.8212 22.8125 29.8212 22.8125 29.8211 22.8125C29.8211 22.8125 29.8211 22.8125 29.821 22.8125C29.821 22.8125 29.821 22.8125 29.8209 22.8125C29.8209 22.8125 29.8209 22.8125 29.8208 22.8125C29.8208 22.8125 29.8208 22.8125 29.8207 22.8125C29.8207 22.8125 29.8207 22.8125 29.8206 22.8125C29.8206 22.8125 29.8206 22.8125 29.8205 22.8125C29.8205 22.8125 29.8205 22.8125 29.8205 22.8125C29.8204 22.8125 29.8204 22.8125 29.8204 22.8125C29.8203 22.8125 29.8203 22.8125 29.8203 22.8125C29.8202 22.8125 29.8202 22.8125 29.8202 22.8125C29.8201 22.8125 29.8201 22.8125 29.8201 22.8125C29.82 22.8125 29.82 22.8125 29.82 22.8125C29.82 22.8125 29.8199 22.8125 29.8199 22.8125C29.8199 22.8125 29.8198 22.8125 29.8198 22.8125C29.8198 22.8125 29.8197 22.8125 29.8197 22.8125C29.8197 22.8125 29.8197 22.8125 29.8196 22.8125C29.8196 22.8125 29.8196 22.8125 29.8195 22.8125C29.8195 22.8125 29.8195 22.8125 29.8194 22.8125C29.8194 22.8125 29.8194 22.8125 29.8194 22.8125C29.8193 22.8125 29.8193 22.8125 29.8193 22.8125C29.8192 22.8125 29.8192 22.8125 29.8192 22.8125C29.8191 22.8125 29.8191 22.8125 29.8191 22.8125C29.8191 22.8125 29.819 22.8125 29.819 22.8125C29.819 22.8125 29.8189 22.8125 29.8189 22.8125C29.8189 22.8125 29.8189 22.8125 29.8188 22.8125C29.8188 22.8125 29.8188 22.8125 29.8187 22.8125C29.8187 22.8125 29.8187 22.8125 29.8186 22.8125C29.8186 22.8125 29.8186 22.8125 29.8186 22.8125C29.8185 22.8125 29.8185 22.8125 29.8185 22.8125C29.8184 22.8125 29.8184 22.8125 29.8184 22.8125C29.8184 22.8125 29.8183 22.8125 29.8183 22.8125C29.8183 22.8125 29.8183 22.8125 29.8182 22.8125C29.8182 22.8125 29.8182 22.8125 29.8181 22.8125C29.8181 22.8125 29.8181 22.8125 29.8181 22.8125C29.818 22.8125 29.818 22.8125 29.818 22.8125C29.8179 22.8125 29.8179 22.8125 29.8179 22.8125C29.8179 22.8125 29.8178 22.8125 29.8178 22.8125C29.8178 22.8125 29.8178 22.8125 29.8177 22.8125C29.8177 22.8125 29.8177 22.8125 29.8176 22.8125C29.8176 22.8125 29.8176 22.8125 29.8176 22.8125C29.8175 22.8125 29.8175 22.8125 29.8175 22.8125C29.8175 22.8125 29.8174 22.8125 29.8174 22.8125C29.8174 22.8125 29.8173 22.8125 29.8173 22.8125C29.8173 22.8125 29.8173 22.8125 29.8172 22.8125C29.8172 22.8125 29.8172 22.8125 29.8172 22.8125C29.8171 22.8125 29.8171 22.8125 29.8171 22.8125C29.8171 22.8125 29.817 22.8125 29.817 22.8125C29.817 22.8125 29.817 22.8125 29.8169 22.8125C29.8169 22.8125 29.8169 22.8125 29.8169 22.8125C29.8168 22.8125 29.8168 22.8125 29.8168 22.8125C29.8167 22.8125 29.8167 22.8125 29.8167 22.8125C29.8167 22.8125 29.8166 22.8125 29.8166 22.8125C29.8166 22.8125 29.8166 22.8125 29.8165 22.8125C29.8165 22.8125 29.8165 22.8125 29.8165 22.8125C29.8164 22.8125 29.8164 22.8125 29.8164 22.8125C29.8164 22.8125 29.8163 22.8125 29.8163 22.8125C29.8163 22.8125 29.8163 22.8125 29.8162 22.8125C29.8162 22.8125 29.8162 22.8125 29.8162 22.8125C29.8161 22.8125 29.8161 22.8125 29.8161 22.8125C29.8161 22.8125 29.816 22.8125 29.816 22.8125C29.816 22.8125 29.816 22.8125 29.816 22.8125C29.8159 22.8125 29.8159 22.8125 29.8159 22.8125C29.8159 22.8125 29.8158 22.8125 29.8158 22.8125C29.8158 22.8125 29.8158 22.8125 29.8157 22.8125C29.8157 22.8125 29.8157 22.8125 29.8157 22.8125C29.8156 22.8125 29.8156 22.8125 29.8156 22.8125C29.8156 22.8125 29.8155 22.8125 29.8155 22.8125C29.8155 22.8125 29.8155 22.8125 29.8155 22.8125C29.8154 22.8125 29.8154 22.8125 29.8154 22.8125C29.8154 22.8125 29.8153 22.8125 29.8153 22.8125C29.8153 22.8125 29.8153 22.8125 29.8152 22.8125C29.8152 22.8125 29.8152 22.8125 29.8152 22.8125C29.8152 22.8125 29.8151 22.8125 29.8151 22.8125C29.8151 22.8125 29.8151 22.8125 29.815 22.8125C29.815 22.8125 29.815 22.8125 29.815 22.8125C29.815 22.8125 29.8149 22.8125 29.8149 22.8125C29.8149 22.8125 29.8149 22.8125 29.8148 22.8125C29.8148 22.8125 29.8148 22.8125 29.8148 22.8125C29.8148 22.8125 29.8147 22.8125 29.8147 22.8125C29.8147 22.8125 29.8147 22.8125 29.8146 22.8125C29.8146 22.8125 29.8146 22.8125 29.8146 22.8125C29.8146 22.8125 29.8145 22.8125 29.8145 22.8125C29.8145 22.8125 29.8145 22.8125 29.8145 22.8125C29.8144 22.8125 29.8144 22.8125 29.8144 22.8125C29.8144 22.8125 29.8143 22.8125 29.8143 22.8125C29.8143 22.8125 29.8143 22.8125 29.8143 22.8125C29.8142 22.8125 29.8142 22.8125 29.8142 22.8125C29.8142 22.8125 29.8142 22.8125 29.8141 22.8125C29.8141 22.8125 29.8141 22.8125 29.8141 22.8125C29.8141 22.8125 29.814 22.8125 29.814 22.8125C29.814 22.8125 29.814 22.8125 29.814 22.8125C29.8139 22.8125 29.8139 22.8125 29.8139 22.8125C29.8139 22.8125 29.8139 22.8125 29.8138 22.8125C29.8138 22.8125 29.8138 22.8125 29.8138 22.8125C29.8138 22.8125 29.8137 22.8125 29.8137 22.8125C29.8137 22.8125 29.8137 22.8125 29.8137 22.8125C29.8136 22.8125 29.8136 22.8125 29.8136 22.8125C29.8136 22.8125 29.8136 22.8125 29.8135 22.8125C29.8135 22.8125 29.8135 22.8125 29.8135 22.8125C29.8135 22.8125 29.8134 22.8125 29.8134 22.8125C29.8134 22.8125 29.8134 22.8125 29.8134 22.8125C29.8134 22.8125 29.8133 22.8125 29.8133 22.8125C29.8133 22.8125 29.8133 22.8125 29.8133 22.8125C29.8132 22.8125 29.8132 22.8125 29.8132 22.8125C29.8132 22.8125 29.8132 22.8125 29.8132 22.8125C29.8131 22.8125 29.8131 22.8125 29.8131 22.8125C29.8131 22.8125 29.8131 22.8125 29.813 22.8125C29.813 22.8125 29.813 22.8125 29.813 22.8125C29.813 22.8125 29.813 22.8125 29.8129 22.8125C29.8129 22.8125 29.8129 22.8125 29.8129 22.8125C29.8129 22.8125 29.8128 22.8125 29.8128 22.8125C29.8128 22.8125 29.8128 22.8125 29.8128 22.8125C29.8128 22.8125 29.8127 22.8125 29.8127 22.8125C29.8127 22.8125 29.8127 22.8125 29.8127 22.8125C29.8127 22.8125 29.8126 22.8125 29.8126 22.8125C29.8126 22.8125 29.8126 22.8125 29.8126 22.8125C29.8126 22.8125 29.8125 22.8125 29.8125 22.8125C29.8125 22.8125 29.8125 22.8125 29.8125 22.8125C29.8125 22.8125 29.8124 22.8125 29.8124 22.8125C29.8124 22.8125 29.8124 22.8125 29.8124 22.8125C29.8124 22.8125 29.8123 22.8125 29.8123 22.8125C29.8123 22.8125 29.8123 22.8125 29.8123 22.8125C29.8123 22.8125 29.8122 22.8125 29.8122 22.8125C29.8122 22.8125 29.8122 22.8125 29.8122 22.8125C29.8122 22.8125 29.8121 22.8125 29.8121 22.8125C29.8121 22.8125 29.8121 22.8125 29.8121 22.8125C29.8121 22.8125 29.8121 22.8125 29.812 22.8125C29.812 22.8125 29.812 22.8125 29.812 22.8125C29.812 22.8125 29.812 22.8125 29.8119 22.8125C29.8119 22.8125 29.8119 22.8125 29.8119 22.8125C29.8119 22.8125 29.8119 22.8125 29.8119 22.8125C29.8118 22.8125 29.8118 22.8125 29.8118 22.8125C29.8118 22.8125 29.8118 22.8125 29.8118 22.8125C29.8118 22.8125 29.8117 22.8125 29.8117 22.8125C29.8117 22.8125 29.8117 22.8125 29.8117 22.8125C29.8117 22.8125 29.8117 22.8125 29.8116 22.8125C29.8116 22.8125 29.8116 22.8125 29.8116 22.8125C29.8116 22.8125 29.8116 22.8125 29.8116 22.8125C29.8115 22.8125 29.8115 22.8125 29.8115 22.8125C29.8115 22.8125 29.8115 22.8125 29.8115 22.8125C29.8115 22.8125 29.8114 22.8125 29.8114 22.8125C29.8114 22.8125 29.8114 22.8125 29.8114 22.8125C29.8114 22.8125 29.8114 22.8125 29.8114 22.8125C29.8113 22.8125 29.8113 22.8125 29.8113 22.8125C29.8113 22.8125 29.8113 22.8125 29.8113 22.8125C29.8113 22.8125 29.8113 22.8125 29.8112 22.8125C29.8112 22.8125 29.8112 22.8125 29.8112 22.8125C29.8112 22.8125 29.8112 22.8125 29.8112 22.8125C29.8111 22.8125 29.8111 22.8125 29.8111 22.8125C29.8111 22.8125 29.8111 22.8125 29.8111 22.8125C29.8111 22.8125 29.8111 22.8125 29.8111 22.8125C29.811 22.8125 29.811 22.8125 29.811 22.8125C29.811 22.8125 29.811 22.8125 29.811 22.8125C29.811 22.8125 29.811 22.8125 29.8109 22.8125C29.8109 22.8125 29.8109 22.8125 29.8109 22.8125C29.8109 22.8125 29.8109 22.8125 29.8109 22.8125C29.8109 22.8125 29.8109 22.8125 29.8108 22.8125C29.8108 22.8125 29.8108 22.8125 29.8108 22.8125C29.8108 22.8125 29.8108 22.8125 29.8108 22.8125C29.8108 22.8125 29.8107 22.8125 29.8107 22.8125C29.8107 22.8125 29.8107 22.8125 29.8107 22.8125C29.8107 22.8125 29.8107 22.8125 29.8107 22.8125C29.8107 22.8125 29.8107 22.8125 29.8106 22.8125C29.8106 22.8125 29.8106 22.8125 29.8106 22.8125C29.8106 22.8125 29.8106 22.8125 29.8106 22.8125C29.8106 22.8125 29.8106 22.8125 29.8105 22.8125C29.8105 22.8125 29.8105 22.8125 29.8105 22.8125C29.8105 22.8125 29.8105 22.8125 29.8105 22.8125C29.8105 22.8125 29.8105 22.8125 29.8105 22.8125C29.8104 22.8125 29.8104 22.8125 29.8104 22.8125C29.8104 22.8125 29.8104 22.8125 29.8104 22.8125C29.8104 22.8125 29.8104 22.8125 29.8104 22.8125C29.8104 22.8125 29.8104 22.8125 29.8103 22.8125C29.8103 22.8125 29.8103 22.8125 29.8103 22.8125C29.8103 22.8125 29.8103 22.8125 29.8103 22.8125C29.8103 22.8125 29.8103 22.8125 29.8103 22.8125C29.8103 22.8125 29.8102 22.8125 29.8102 22.8125C29.8102 22.8125 29.8102 22.8125 29.8102 22.8125C29.8102 22.8125 29.8102 22.8125 29.8102 22.8125C29.8102 22.8125 29.8102 22.8125 29.8102 22.8125C29.8102 22.8125 29.8101 22.8125 29.8101 22.8125C29.8101 22.8125 29.8101 22.8125 29.8101 22.8125C29.8101 22.8125 29.8101 22.8125 29.8101 22.8125C29.8101 22.8125 29.8101 22.8125 29.8101 22.8125C29.8101 22.8125 29.8101 22.8125 29.81 22.8125C29.81 22.8125 29.81 22.8125 29.81 22.8125C29.81 22.8125 29.81 22.8125 29.81 22.8125C29.81 22.8125 29.81 22.8125 29.81 22.8125C29.81 22.8125 29.81 22.8125 29.81 22.8125C29.8099 22.8125 29.8099 22.8125 29.8099 22.8125C29.8099 22.8125 29.8099 22.8125 29.8099 22.8125C29.8099 22.8125 29.8099 22.8125 29.8099 22.8125C29.8099 22.8125 29.8099 22.8125 29.8099 22.8125C29.8099 22.8125 29.8099 22.8125 29.8099 22.8125C29.8098 22.8125 29.8098 22.8125 29.8098 22.8125C29.8098 22.8125 29.8098 22.8125 29.8098 22.8125C29.8098 22.8125 29.8098 22.8125 29.8098 22.8125C29.8098 22.8125 29.8098 22.8125 29.8098 22.8125C29.8098 22.8125 29.8098 22.8125 29.8098 22.8125C29.8098 22.8125 29.8098 22.8125 29.8097 22.8125C29.8097 22.8125 29.8097 22.8125 29.8097 22.8125C29.8097 22.8125 29.8097 22.8125 29.8097 22.8125C29.8097 22.8125 29.8097 22.8125 29.8097 22.8125C29.8097 22.8125 29.8097 22.8125 29.8097 22.8125C29.8097 22.8125 29.8097 22.8125 29.8097 22.8125C29.8097 22.8125 29.8097 22.8125 29.8097 22.8125C29.8096 22.8125 29.8096 22.8125 29.8096 22.8125C29.8096 22.8125 29.8096 22.8125 29.8096 22.8125C29.8096 22.8125 29.8096 22.8125 29.8096 22.8125C29.8096 22.8125 29.8096 22.8125 29.8096 22.8125C29.8096 22.8125 29.8096 22.8125 29.8096 22.8125C29.8096 22.8125 29.8096 22.8125 29.8096 22.8125C29.8096 22.8125 29.8096 22.8125 29.8096 22.8125C29.8096 22.8125 29.8096 22.8125 29.8095 22.8125C29.8095 22.8125 29.8095 22.8125 29.8095 22.8125C29.8095 22.8125 29.8095 22.8125 29.8095 22.8125C29.8095 22.8125 29.8095 22.8125 29.8095 22.8125C29.8095 22.8125 29.8095 22.8125 29.8095 22.8125C29.8095 22.8125 29.8095 22.8125 29.8095 22.8125C29.8095 22.8125 29.8095 22.8125 29.8095 22.8125C29.8095 22.8125 29.8095 22.8125 29.8095 22.8125C29.8095 22.8125 29.8095 22.8125 29.8095 22.8125C29.8095 22.8125 29.8095 22.8125 29.8095 22.8125C29.8095 22.8125 29.8095 22.8125 29.8095 22.8125C29.8095 22.8125 29.8095 22.8125 29.8095 22.8125C29.8094 22.8125 29.8094 22.8125 29.8094 22.8125C29.8094 22.8125 29.8094 22.8125 29.8094 22.8125C29.8094 22.8125 29.8094 22.8125 29.8094 22.8125C29.8094 22.8125 29.8094 22.8125 29.8094 22.8125C29.8094 22.8125 29.8094 22.8125 29.8094 22.8125C29.8094 22.8125 29.8094 22.8125 29.8094 22.8125C29.8094 22.8125 29.8094 22.8125 29.8094 22.8125C29.8094 22.8125 29.8094 22.8125 29.8094 22.8125C29.8094 22.8125 29.8094 22.8125 29.8094 22.8125C29.8094 22.8125 29.8094 22.8125 29.8094 22.8125C29.8094 22.8125 29.8094 22.8125 29.8094 22.8125C29.8094 22.8125 29.8094 22.8125 29.8094 22.8125C29.8094 22.8125 29.8094 22.8125 29.8094 22.8125H29.8094C29.8094 22.8125 29.8094 22.8125 29.8094 22.8125C29.8094 22.8125 29.8094 22.8125 29.8094 22.8125C29.8094 22.8125 29.8094 22.8125 29.8094 25.8125C29.8094 28.8125 29.8094 28.8125 29.8094 28.8125C29.8094 28.8125 29.8094 28.8125 29.8094 28.8125C29.8094 28.8125 29.8094 28.8125 29.8094 28.8125H29.8094C29.8094 28.8125 29.8094 28.8125 29.8094 28.8125C29.8094 28.8125 29.8094 28.8125 29.8094 28.8125C29.8094 28.8125 29.8094 28.8125 29.8094 28.8125C29.8094 28.8125 29.8094 28.8125 29.8094 28.8125C29.8094 28.8125 29.8094 28.8125 29.8094 28.8125C29.8094 28.8125 29.8094 28.8125 29.8094 28.8125C29.8094 28.8125 29.8094 28.8125 29.8094 28.8125C29.8094 28.8125 29.8094 28.8125 29.8094 28.8125C29.8094 28.8125 29.8094 28.8125 29.8094 28.8125C29.8094 28.8125 29.8094 28.8125 29.8094 28.8125C29.8094 28.8125 29.8094 28.8125 29.8094 28.8125C29.8094 28.8125 29.8094 28.8125 29.8094 28.8125C29.8094 28.8125 29.8094 28.8125 29.8095 28.8125C29.8095 28.8125 29.8095 28.8125 29.8095 28.8125C29.8095 28.8125 29.8095 28.8125 29.8095 28.8125C29.8095 28.8125 29.8095 28.8125 29.8095 28.8125C29.8095 28.8125 29.8095 28.8125 29.8095 28.8125C29.8095 28.8125 29.8095 28.8125 29.8095 28.8125C29.8095 28.8125 29.8095 28.8125 29.8095 28.8125C29.8095 28.8125 29.8095 28.8125 29.8095 28.8125C29.8095 28.8125 29.8095 28.8125 29.8095 28.8125C29.8095 28.8125 29.8095 28.8125 29.8095 28.8125C29.8095 28.8125 29.8095 28.8125 29.8095 28.8125C29.8095 28.8125 29.8095 28.8125 29.8095 28.8125C29.8096 28.8125 29.8096 28.8125 29.8096 28.8125C29.8096 28.8125 29.8096 28.8125 29.8096 28.8125C29.8096 28.8125 29.8096 28.8125 29.8096 28.8125C29.8096 28.8125 29.8096 28.8125 29.8096 28.8125C29.8096 28.8125 29.8096 28.8125 29.8096 28.8125C29.8096 28.8125 29.8096 28.8125 29.8096 28.8125C29.8096 28.8125 29.8096 28.8125 29.8096 28.8125C29.8096 28.8125 29.8096 28.8125 29.8097 28.8125C29.8097 28.8125 29.8097 28.8125 29.8097 28.8125C29.8097 28.8125 29.8097 28.8125 29.8097 28.8125C29.8097 28.8125 29.8097 28.8125 29.8097 28.8125C29.8097 28.8125 29.8097 28.8125 29.8097 28.8125C29.8097 28.8125 29.8097 28.8125 29.8097 28.8125C29.8097 28.8125 29.8097 28.8125 29.8097 28.8125C29.8098 28.8125 29.8098 28.8125 29.8098 28.8125C29.8098 28.8125 29.8098 28.8125 29.8098 28.8125C29.8098 28.8125 29.8098 28.8125 29.8098 28.8125C29.8098 28.8125 29.8098 28.8125 29.8098 28.8125C29.8098 28.8125 29.8098 28.8125 29.8098 28.8125C29.8098 28.8125 29.8098 28.8125 29.8099 28.8125C29.8099 28.8125 29.8099 28.8125 29.8099 28.8125C29.8099 28.8125 29.8099 28.8125 29.8099 28.8125C29.8099 28.8125 29.8099 28.8125 29.8099 28.8125C29.8099 28.8125 29.8099 28.8125 29.8099 28.8125C29.8099 28.8125 29.8099 28.8125 29.81 28.8125C29.81 28.8125 29.81 28.8125 29.81 28.8125C29.81 28.8125 29.81 28.8125 29.81 28.8125C29.81 28.8125 29.81 28.8125 29.81 28.8125C29.81 28.8125 29.81 28.8125 29.81 28.8125C29.8101 28.8125 29.8101 28.8125 29.8101 28.8125C29.8101 28.8125 29.8101 28.8125 29.8101 28.8125C29.8101 28.8125 29.8101 28.8125 29.8101 28.8125C29.8101 28.8125 29.8101 28.8125 29.8101 28.8125C29.8101 28.8125 29.8102 28.8125 29.8102 28.8125C29.8102 28.8125 29.8102 28.8125 29.8102 28.8125C29.8102 28.8125 29.8102 28.8125 29.8102 28.8125C29.8102 28.8125 29.8102 28.8125 29.8102 28.8125C29.8102 28.8125 29.8103 28.8125 29.8103 28.8125C29.8103 28.8125 29.8103 28.8125 29.8103 28.8125C29.8103 28.8125 29.8103 28.8125 29.8103 28.8125C29.8103 28.8125 29.8103 28.8125 29.8103 28.8125C29.8104 28.8125 29.8104 28.8125 29.8104 28.8125C29.8104 28.8125 29.8104 28.8125 29.8104 28.8125C29.8104 28.8125 29.8104 28.8125 29.8104 28.8125C29.8104 28.8125 29.8104 28.8125 29.8105 28.8125C29.8105 28.8125 29.8105 28.8125 29.8105 28.8125C29.8105 28.8125 29.8105 28.8125 29.8105 28.8125C29.8105 28.8125 29.8105 28.8125 29.8105 28.8125C29.8106 28.8125 29.8106 28.8125 29.8106 28.8125C29.8106 28.8125 29.8106 28.8125 29.8106 28.8125C29.8106 28.8125 29.8106 28.8125 29.8106 28.8125C29.8107 28.8125 29.8107 28.8125 29.8107 28.8125C29.8107 28.8125 29.8107 28.8125 29.8107 28.8125C29.8107 28.8125 29.8107 28.8125 29.8107 28.8125C29.8107 28.8125 29.8108 28.8125 29.8108 28.8125C29.8108 28.8125 29.8108 28.8125 29.8108 28.8125C29.8108 28.8125 29.8108 28.8125 29.8108 28.8125C29.8109 28.8125 29.8109 28.8125 29.8109 28.8125C29.8109 28.8125 29.8109 28.8125 29.8109 28.8125C29.8109 28.8125 29.8109 28.8125 29.8109 28.8125C29.811 28.8125 29.811 28.8125 29.811 28.8125C29.811 28.8125 29.811 28.8125 29.811 28.8125C29.811 28.8125 29.811 28.8125 29.8111 28.8125C29.8111 28.8125 29.8111 28.8125 29.8111 28.8125C29.8111 28.8125 29.8111 28.8125 29.8111 28.8125C29.8111 28.8125 29.8111 28.8125 29.8112 28.8125C29.8112 28.8125 29.8112 28.8125 29.8112 28.8125C29.8112 28.8125 29.8112 28.8125 29.8112 28.8125C29.8113 28.8125 29.8113 28.8125 29.8113 28.8125C29.8113 28.8125 29.8113 28.8125 29.8113 28.8125C29.8113 28.8125 29.8113 28.8125 29.8114 28.8125C29.8114 28.8125 29.8114 28.8125 29.8114 28.8125C29.8114 28.8125 29.8114 28.8125 29.8114 28.8125C29.8114 28.8125 29.8115 28.8125 29.8115 28.8125C29.8115 28.8125 29.8115 28.8125 29.8115 28.8125C29.8115 28.8125 29.8115 28.8125 29.8116 28.8125C29.8116 28.8125 29.8116 28.8125 29.8116 28.8125C29.8116 28.8125 29.8116 28.8125 29.8116 28.8125C29.8117 28.8125 29.8117 28.8125 29.8117 28.8125C29.8117 28.8125 29.8117 28.8125 29.8117 28.8125C29.8117 28.8125 29.8118 28.8125 29.8118 28.8125C29.8118 28.8125 29.8118 28.8125 29.8118 28.8125C29.8118 28.8125 29.8118 28.8125 29.8119 28.8125C29.8119 28.8125 29.8119 28.8125 29.8119 28.8125C29.8119 28.8125 29.8119 28.8125 29.8119 28.8125C29.812 28.8125 29.812 28.8125 29.812 28.8125C29.812 28.8125 29.812 28.8125 29.812 28.8125C29.8121 28.8125 29.8121 28.8125 29.8121 28.8125C29.8121 28.8125 29.8121 28.8125 29.8121 28.8125C29.8121 28.8125 29.8122 28.8125 29.8122 28.8125C29.8122 28.8125 29.8122 28.8125 29.8122 28.8125C29.8122 28.8125 29.8123 28.8125 29.8123 28.8125C29.8123 28.8125 29.8123 28.8125 29.8123 28.8125C29.8123 28.8125 29.8124 28.8125 29.8124 28.8125C29.8124 28.8125 29.8124 28.8125 29.8124 28.8125C29.8124 28.8125 29.8125 28.8125 29.8125 28.8125C29.8125 28.8125 29.8125 28.8125 29.8125 28.8125C29.8125 28.8125 29.8126 28.8125 29.8126 28.8125C29.8126 28.8125 29.8126 28.8125 29.8126 28.8125C29.8126 28.8125 29.8127 28.8125 29.8127 28.8125C29.8127 28.8125 29.8127 28.8125 29.8127 28.8125C29.8127 28.8125 29.8128 28.8125 29.8128 28.8125C29.8128 28.8125 29.8128 28.8125 29.8128 28.8125C29.8128 28.8125 29.8129 28.8125 29.8129 28.8125C29.8129 28.8125 29.8129 28.8125 29.8129 28.8125C29.813 28.8125 29.813 28.8125 29.813 28.8125C29.813 28.8125 29.813 28.8125 29.813 28.8125C29.8131 28.8125 29.8131 28.8125 29.8131 28.8125C29.8131 28.8125 29.8131 28.8125 29.8132 28.8125C29.8132 28.8125 29.8132 28.8125 29.8132 28.8125C29.8132 28.8125 29.8132 28.8125 29.8133 28.8125C29.8133 28.8125 29.8133 28.8125 29.8133 28.8125C29.8133 28.8125 29.8134 28.8125 29.8134 28.8125C29.8134 28.8125 29.8134 28.8125 29.8134 28.8125C29.8134 28.8125 29.8135 28.8125 29.8135 28.8125C29.8135 28.8125 29.8135 28.8125 29.8135 28.8125C29.8136 28.8125 29.8136 28.8125 29.8136 28.8125C29.8136 28.8125 29.8136 28.8125 29.8137 28.8125C29.8137 28.8125 29.8137 28.8125 29.8137 28.8125C29.8137 28.8125 29.8138 28.8125 29.8138 28.8125C29.8138 28.8125 29.8138 28.8125 29.8138 28.8125C29.8139 28.8125 29.8139 28.8125 29.8139 28.8125C29.8139 28.8125 29.8139 28.8125 29.814 28.8125C29.814 28.8125 29.814 28.8125 29.814 28.8125C29.814 28.8125 29.8141 28.8125 29.8141 28.8125C29.8141 28.8125 29.8141 28.8125 29.8141 28.8125C29.8142 28.8125 29.8142 28.8125 29.8142 28.8125C29.8142 28.8125 29.8142 28.8125 29.8143 28.8125C29.8143 28.8125 29.8143 28.8125 29.8143 28.8125C29.8143 28.8125 29.8144 28.8125 29.8144 28.8125C29.8144 28.8125 29.8144 28.8125 29.8145 28.8125C29.8145 28.8125 29.8145 28.8125 29.8145 28.8125C29.8145 28.8125 29.8146 28.8125 29.8146 28.8125C29.8146 28.8125 29.8146 28.8125 29.8146 28.8125C29.8147 28.8125 29.8147 28.8125 29.8147 28.8125C29.8147 28.8125 29.8148 28.8125 29.8148 28.8125C29.8148 28.8125 29.8148 28.8125 29.8148 28.8125C29.8149 28.8125 29.8149 28.8125 29.8149 28.8125C29.8149 28.8125 29.815 28.8125 29.815 28.8125C29.815 28.8125 29.815 28.8125 29.815 28.8125C29.8151 28.8125 29.8151 28.8125 29.8151 28.8125C29.8151 28.8125 29.8152 28.8125 29.8152 28.8125C29.8152 28.8125 29.8152 28.8125 29.8152 28.8125C29.8153 28.8125 29.8153 28.8125 29.8153 28.8125C29.8153 28.8125 29.8154 28.8125 29.8154 28.8125C29.8154 28.8125 29.8154 28.8125 29.8155 28.8125C29.8155 28.8125 29.8155 28.8125 29.8155 28.8125C29.8155 28.8125 29.8156 28.8125 29.8156 28.8125C29.8156 28.8125 29.8156 28.8125 29.8157 28.8125C29.8157 28.8125 29.8157 28.8125 29.8157 28.8125C29.8158 28.8125 29.8158 28.8125 29.8158 28.8125C29.8158 28.8125 29.8159 28.8125 29.8159 28.8125C29.8159 28.8125 29.8159 28.8125 29.816 28.8125C29.816 28.8125 29.816 28.8125 29.816 28.8125C29.816 28.8125 29.8161 28.8125 29.8161 28.8125C29.8161 28.8125 29.8161 28.8125 29.8162 28.8125C29.8162 28.8125 29.8162 28.8125 29.8162 28.8125C29.8163 28.8125 29.8163 28.8125 29.8163 28.8125C29.8163 28.8125 29.8164 28.8125 29.8164 28.8125C29.8164 28.8125 29.8164 28.8125 29.8165 28.8125C29.8165 28.8125 29.8165 28.8125 29.8165 28.8125C29.8166 28.8125 29.8166 28.8125 29.8166 28.8125C29.8166 28.8125 29.8167 28.8125 29.8167 28.8125C29.8167 28.8125 29.8167 28.8125 29.8168 28.8125C29.8168 28.8125 29.8168 28.8125 29.8169 28.8125C29.8169 28.8125 29.8169 28.8125 29.8169 28.8125C29.817 28.8125 29.817 28.8125 29.817 28.8125C29.817 28.8125 29.8171 28.8125 29.8171 28.8125C29.8171 28.8125 29.8171 28.8125 29.8172 28.8125C29.8172 28.8125 29.8172 28.8125 29.8172 28.8125C29.8173 28.8125 29.8173 28.8125 29.8173 28.8125C29.8173 28.8125 29.8174 28.8125 29.8174 28.8125C29.8174 28.8125 29.8175 28.8125 29.8175 28.8125C29.8175 28.8125 29.8175 28.8125 29.8176 28.8125C29.8176 28.8125 29.8176 28.8125 29.8176 28.8125C29.8177 28.8125 29.8177 28.8125 29.8177 28.8125C29.8178 28.8125 29.8178 28.8125 29.8178 28.8125C29.8178 28.8125 29.8179 28.8125 29.8179 28.8125C29.8179 28.8125 29.8179 28.8125 29.818 28.8125C29.818 28.8125 29.818 28.8125 29.8181 28.8125C29.8181 28.8125 29.8181 28.8125 29.8181 28.8125C29.8182 28.8125 29.8182 28.8125 29.8182 28.8125C29.8183 28.8125 29.8183 28.8125 29.8183 28.8125C29.8183 28.8125 29.8184 28.8125 29.8184 28.8125C29.8184 28.8125 29.8184 28.8125 29.8185 28.8125C29.8185 28.8125 29.8185 28.8125 29.8186 28.8125C29.8186 28.8125 29.8186 28.8125 29.8186 28.8125C29.8187 28.8125 29.8187 28.8125 29.8187 28.8125C29.8188 28.8125 29.8188 28.8125 29.8188 28.8125C29.8189 28.8125 29.8189 28.8125 29.8189 28.8125C29.8189 28.8125 29.819 28.8125 29.819 28.8125C29.819 28.8125 29.8191 28.8125 29.8191 28.8125C29.8191 28.8125 29.8191 28.8125 29.8192 28.8125C29.8192 28.8125 29.8192 28.8125 29.8193 28.8125C29.8193 28.8125 29.8193 28.8125 29.8194 28.8125C29.8194 28.8125 29.8194 28.8125 29.8194 28.8125C29.8195 28.8125 29.8195 28.8125 29.8195 28.8125C29.8196 28.8125 29.8196 28.8125 29.8196 28.8125C29.8197 28.8125 29.8197 28.8125 29.8197 28.8125C29.8197 28.8125 29.8198 28.8125 29.8198 28.8125C29.8198 28.8125 29.8199 28.8125 29.8199 28.8125C29.8199 28.8125 29.82 28.8125 29.82 28.8125C29.82 28.8125 29.82 28.8125 29.8201 28.8125C29.8201 28.8125 29.8201 28.8125 29.8202 28.8125C29.8202 28.8125 29.8202 28.8125 29.8203 28.8125C29.8203 28.8125 29.8203 28.8125 29.8204 28.8125C29.8204 28.8125 29.8204 28.8125 29.8205 28.8125C29.8205 28.8125 29.8205 28.8125 29.8205 28.8125C29.8206 28.8125 29.8206 28.8125 29.8206 28.8125C29.8207 28.8125 29.8207 28.8125 29.8207 28.8125C29.8208 28.8125 29.8208 28.8125 29.8208 28.8125C29.8209 28.8125 29.8209 28.8125 29.8209 28.8125C29.821 28.8125 29.821 28.8125 29.821 28.8125C29.8211 28.8125 29.8211 28.8125 29.8211 28.8125C29.8212 28.8125 29.8212 28.8125 29.8212 28.8125C29.8212 28.8125 29.8213 28.8125 29.8213 28.8125C29.8213 28.8125 29.8214 28.8125 29.8214 28.8125C29.8214 28.8125 29.8215 28.8125 29.8215 28.8125C29.8215 28.8125 29.8216 28.8125 29.8216 28.8125C29.8216 28.8125 29.8217 28.8125 29.8217 28.8125C29.8217 28.8125 29.8218 28.8125 29.8218 28.8125C29.8218 28.8125 29.8219 28.8125 29.8219 28.8125C29.8219 28.8125 29.822 28.8125 29.822 28.8125C29.822 28.8125 29.8221 28.8125 29.8221 28.8125C29.8221 28.8125 29.8222 28.8125 29.8222 28.8125C29.8222 28.8125 29.8223 28.8125 29.8223 28.8125C29.8223 28.8125 29.8224 28.8125 29.8224 28.8125C29.8224 28.8125 29.8225 28.8125 29.8225 28.8125V22.8125C29.8225 22.8125 29.8224 22.8125 29.8224 22.8125C29.8224 22.8125 29.8223 22.8125 29.8223 22.8125C29.8223 22.8125 29.8222 22.8125 29.8222 22.8125C29.8222 22.8125 29.8221 22.8125 29.8221 22.8125C29.8221 22.8125 29.822 22.8125 29.822 22.8125C29.822 22.8125 29.8219 22.8125 29.8219 22.8125C29.8219 22.8125 29.8218 22.8125 29.8218 22.8125C29.8218 22.8125 29.8217 22.8125 29.8217 22.8125C29.8217 22.8125 29.8216 22.8125 29.8216 22.8125C29.8216 22.8125 29.8215 22.8125 29.8215 22.8125C29.8215 22.8125 29.8214 22.8125 29.8214 22.8125C29.8214 22.8125 29.8213 22.8125 29.8213 22.8125C29.8213 22.8125 29.8212 22.8125 29.8212 22.8125C29.8212 22.8125 29.8212 22.8125 29.8211 22.8125C29.8211 22.8125 29.8211 22.8125 29.821 22.8125C29.821 22.8125 29.821 22.8125 29.8209 22.8125C29.8209 22.8125 29.8209 22.8125 29.8208 22.8125C29.8208 22.8125 29.8208 22.8125 29.8207 22.8125C29.8207 22.8125 29.8207 22.8125 29.8206 22.8125C29.8206 22.8125 29.8206 22.8125 29.8205 22.8125C29.8205 22.8125 29.8205 22.8125 29.8205 22.8125C29.8204 22.8125 29.8204 22.8125 29.8204 22.8125C29.8203 22.8125 29.8203 22.8125 29.8203 22.8125C29.8202 22.8125 29.8202 22.8125 29.8202 22.8125C29.8201 22.8125 29.8201 22.8125 29.8201 22.8125C29.82 22.8125 29.82 22.8125 29.82 22.8125C29.82 22.8125 29.8199 22.8125 29.8199 22.8125C29.8199 22.8125 29.8198 22.8125 29.8198 22.8125C29.8198 22.8125 29.8197 22.8125 29.8197 22.8125C29.8197 22.8125 29.8197 22.8125 29.8196 22.8125C29.8196 22.8125 29.8196 22.8125 29.8195 22.8125C29.8195 22.8125 29.8195 22.8125 29.8194 22.8125C29.8194 22.8125 29.8194 22.8125 29.8194 22.8125C29.8193 22.8125 29.8193 22.8125 29.8193 22.8125C29.8192 22.8125 29.8192 22.8125 29.8192 22.8125C29.8191 22.8125 29.8191 22.8125 29.8191 22.8125C29.8191 22.8125 29.819 22.8125 29.819 22.8125C29.819 22.8125 29.8189 22.8125 29.8189 22.8125C29.8189 22.8125 29.8189 22.8125 29.8188 22.8125C29.8188 22.8125 29.8188 22.8125 29.8187 22.8125C29.8187 22.8125 29.8187 22.8125 29.8186 22.8125C29.8186 22.8125 29.8186 22.8125 29.8186 22.8125C29.8185 22.8125 29.8185 22.8125 29.8185 22.8125C29.8184 22.8125 29.8184 22.8125 29.8184 22.8125C29.8184 22.8125 29.8183 22.8125 29.8183 22.8125C29.8183 22.8125 29.8183 22.8125 29.8182 22.8125C29.8182 22.8125 29.8182 22.8125 29.8181 22.8125C29.8181 22.8125 29.8181 22.8125 29.8181 22.8125C29.818 22.8125 29.818 22.8125 29.818 22.8125C29.8179 22.8125 29.8179 22.8125 29.8179 22.8125C29.8179 22.8125 29.8178 22.8125 29.8178 22.8125C29.8178 22.8125 29.8178 22.8125 29.8177 22.8125C29.8177 22.8125 29.8177 22.8125 29.8176 22.8125C29.8176 22.8125 29.8176 22.8125 29.8176 22.8125C29.8175 22.8125 29.8175 22.8125 29.8175 22.8125C29.8175 22.8125 29.8174 22.8125 29.8174 22.8125C29.8174 22.8125 29.8173 22.8125 29.8173 22.8125C29.8173 22.8125 29.8173 22.8125 29.8172 22.8125C29.8172 22.8125 29.8172 22.8125 29.8172 22.8125C29.8171 22.8125 29.8171 22.8125 29.8171 22.8125C29.8171 22.8125 29.817 22.8125 29.817 22.8125C29.817 22.8125 29.817 22.8125 29.8169 22.8125C29.8169 22.8125 29.8169 22.8125 29.8169 22.8125C29.8168 22.8125 29.8168 22.8125 29.8168 22.8125C29.8167 22.8125 29.8167 22.8125 29.8167 22.8125C29.8167 22.8125 29.8166 22.8125 29.8166 22.8125C29.8166 22.8125 29.8166 22.8125 29.8165 22.8125C29.8165 22.8125 29.8165 22.8125 29.8165 22.8125C29.8164 22.8125 29.8164 22.8125 29.8164 22.8125C29.8164 22.8125 29.8163 22.8125 29.8163 22.8125C29.8163 22.8125 29.8163 22.8125 29.8162 22.8125C29.8162 22.8125 29.8162 22.8125 29.8162 22.8125C29.8161 22.8125 29.8161 22.8125 29.8161 22.8125C29.8161 22.8125 29.816 22.8125 29.816 22.8125C29.816 22.8125 29.816 22.8125 29.816 22.8125C29.8159 22.8125 29.8159 22.8125 29.8159 22.8125C29.8159 22.8125 29.8158 22.8125 29.8158 22.8125C29.8158 22.8125 29.8158 22.8125 29.8157 22.8125C29.8157 22.8125 29.8157 22.8125 29.8157 22.8125C29.8156 22.8125 29.8156 22.8125 29.8156 22.8125C29.8156 22.8125 29.8155 22.8125 29.8155 22.8125C29.8155 22.8125 29.8155 22.8125 29.8155 22.8125C29.8154 22.8125 29.8154 22.8125 29.8154 22.8125C29.8154 22.8125 29.8153 22.8125 29.8153 22.8125C29.8153 22.8125 29.8153 22.8125 29.8152 22.8125C29.8152 22.8125 29.8152 22.8125 29.8152 22.8125C29.8152 22.8125 29.8151 22.8125 29.8151 22.8125C29.8151 22.8125 29.8151 22.8125 29.815 22.8125C29.815 22.8125 29.815 22.8125 29.815 22.8125C29.815 22.8125 29.8149 22.8125 29.8149 22.8125C29.8149 22.8125 29.8149 22.8125 29.8148 22.8125C29.8148 22.8125 29.8148 22.8125 29.8148 22.8125C29.8148 22.8125 29.8147 22.8125 29.8147 22.8125C29.8147 22.8125 29.8147 22.8125 29.8146 22.8125C29.8146 22.8125 29.8146 22.8125 29.8146 22.8125C29.8146 22.8125 29.8145 22.8125 29.8145 22.8125C29.8145 22.8125 29.8145 22.8125 29.8145 22.8125C29.8144 22.8125 29.8144 22.8125 29.8144 22.8125C29.8144 22.8125 29.8143 22.8125 29.8143 22.8125C29.8143 22.8125 29.8143 22.8125 29.8143 22.8125C29.8142 22.8125 29.8142 22.8125 29.8142 22.8125C29.8142 22.8125 29.8142 22.8125 29.8141 22.8125C29.8141 22.8125 29.8141 22.8125 29.8141 22.8125C29.8141 22.8125 29.814 22.8125 29.814 22.8125C29.814 22.8125 29.814 22.8125 29.814 22.8125C29.8139 22.8125 29.8139 22.8125 29.8139 22.8125C29.8139 22.8125 29.8139 22.8125 29.8138 22.8125C29.8138 22.8125 29.8138 22.8125 29.8138 22.8125C29.8138 22.8125 29.8137 22.8125 29.8137 22.8125C29.8137 22.8125 29.8137 22.8125 29.8137 22.8125C29.8136 22.8125 29.8136 22.8125 29.8136 22.8125C29.8136 22.8125 29.8136 22.8125 29.8135 22.8125C29.8135 22.8125 29.8135 22.8125 29.8135 22.8125C29.8135 22.8125 29.8134 22.8125 29.8134 22.8125C29.8134 22.8125 29.8134 22.8125 29.8134 22.8125C29.8134 22.8125 29.8133 22.8125 29.8133 22.8125C29.8133 22.8125 29.8133 22.8125 29.8133 22.8125C29.8132 22.8125 29.8132 22.8125 29.8132 22.8125C29.8132 22.8125 29.8132 22.8125 29.8132 22.8125C29.8131 22.8125 29.8131 22.8125 29.8131 22.8125C29.8131 22.8125 29.8131 22.8125 29.813 22.8125C29.813 22.8125 29.813 22.8125 29.813 22.8125C29.813 22.8125 29.813 22.8125 29.8129 22.8125C29.8129 22.8125 29.8129 22.8125 29.8129 22.8125C29.8129 22.8125 29.8128 22.8125 29.8128 22.8125C29.8128 22.8125 29.8128 22.8125 29.8128 22.8125C29.8128 22.8125 29.8127 22.8125 29.8127 22.8125C29.8127 22.8125 29.8127 22.8125 29.8127 22.8125C29.8127 22.8125 29.8126 22.8125 29.8126 22.8125C29.8126 22.8125 29.8126 22.8125 29.8126 22.8125C29.8126 22.8125 29.8125 22.8125 29.8125 22.8125C29.8125 22.8125 29.8125 22.8125 29.8125 22.8125C29.8125 22.8125 29.8124 22.8125 29.8124 22.8125C29.8124 22.8125 29.8124 22.8125 29.8124 22.8125C29.8124 22.8125 29.8123 22.8125 29.8123 22.8125C29.8123 22.8125 29.8123 22.8125 29.8123 22.8125C29.8123 22.8125 29.8122 22.8125 29.8122 22.8125C29.8122 22.8125 29.8122 22.8125 29.8122 22.8125C29.8122 22.8125 29.8121 22.8125 29.8121 22.8125C29.8121 22.8125 29.8121 22.8125 29.8121 22.8125C29.8121 22.8125 29.8121 22.8125 29.812 22.8125C29.812 22.8125 29.812 22.8125 29.812 22.8125C29.812 22.8125 29.812 22.8125 29.8119 22.8125C29.8119 22.8125 29.8119 22.8125 29.8119 22.8125C29.8119 22.8125 29.8119 22.8125 29.8119 22.8125C29.8118 22.8125 29.8118 22.8125 29.8118 22.8125C29.8118 22.8125 29.8118 22.8125 29.8118 22.8125C29.8118 22.8125 29.8117 22.8125 29.8117 22.8125C29.8117 22.8125 29.8117 22.8125 29.8117 22.8125C29.8117 22.8125 29.8117 22.8125 29.8116 22.8125C29.8116 22.8125 29.8116 22.8125 29.8116 22.8125C29.8116 22.8125 29.8116 22.8125 29.8116 22.8125C29.8115 22.8125 29.8115 22.8125 29.8115 22.8125C29.8115 22.8125 29.8115 22.8125 29.8115 22.8125C29.8115 22.8125 29.8114 22.8125 29.8114 22.8125C29.8114 22.8125 29.8114 22.8125 29.8114 22.8125C29.8114 22.8125 29.8114 22.8125 29.8114 22.8125C29.8113 22.8125 29.8113 22.8125 29.8113 22.8125C29.8113 22.8125 29.8113 22.8125 29.8113 22.8125C29.8113 22.8125 29.8113 22.8125 29.8112 22.8125C29.8112 22.8125 29.8112 22.8125 29.8112 22.8125C29.8112 22.8125 29.8112 22.8125 29.8112 22.8125C29.8111 22.8125 29.8111 22.8125 29.8111 22.8125C29.8111 22.8125 29.8111 22.8125 29.8111 22.8125C29.8111 22.8125 29.8111 22.8125 29.8111 22.8125C29.811 22.8125 29.811 22.8125 29.811 22.8125C29.811 22.8125 29.811 22.8125 29.811 22.8125C29.811 22.8125 29.811 22.8125 29.8109 22.8125C29.8109 22.8125 29.8109 22.8125 29.8109 22.8125C29.8109 22.8125 29.8109 22.8125 29.8109 22.8125C29.8109 22.8125 29.8109 22.8125 29.8108 22.8125C29.8108 22.8125 29.8108 22.8125 29.8108 22.8125C29.8108 22.8125 29.8108 22.8125 29.8108 22.8125C29.8108 22.8125 29.8107 22.8125 29.8107 22.8125C29.8107 22.8125 29.8107 22.8125 29.8107 22.8125C29.8107 22.8125 29.8107 22.8125 29.8107 22.8125C29.8107 22.8125 29.8107 22.8125 29.8106 22.8125C29.8106 22.8125 29.8106 22.8125 29.8106 22.8125C29.8106 22.8125 29.8106 22.8125 29.8106 22.8125C29.8106 22.8125 29.8106 22.8125 29.8105 22.8125C29.8105 22.8125 29.8105 22.8125 29.8105 22.8125C29.8105 22.8125 29.8105 22.8125 29.8105 22.8125C29.8105 22.8125 29.8105 22.8125 29.8105 22.8125C29.8104 22.8125 29.8104 22.8125 29.8104 22.8125C29.8104 22.8125 29.8104 22.8125 29.8104 22.8125C29.8104 22.8125 29.8104 22.8125 29.8104 22.8125C29.8104 22.8125 29.8104 22.8125 29.8103 22.8125C29.8103 22.8125 29.8103 22.8125 29.8103 22.8125C29.8103 22.8125 29.8103 22.8125 29.8103 22.8125C29.8103 22.8125 29.8103 22.8125 29.8103 22.8125C29.8103 22.8125 29.8102 22.8125 29.8102 22.8125C29.8102 22.8125 29.8102 22.8125 29.8102 22.8125C29.8102 22.8125 29.8102 22.8125 29.8102 22.8125C29.8102 22.8125 29.8102 22.8125 29.8102 22.8125C29.8102 22.8125 29.8101 22.8125 29.8101 22.8125C29.8101 22.8125 29.8101 22.8125 29.8101 22.8125C29.8101 22.8125 29.8101 22.8125 29.8101 22.8125C29.8101 22.8125 29.8101 22.8125 29.8101 22.8125C29.8101 22.8125 29.8101 22.8125 29.81 22.8125C29.81 22.8125 29.81 22.8125 29.81 22.8125C29.81 22.8125 29.81 22.8125 29.81 22.8125C29.81 22.8125 29.81 22.8125 29.81 22.8125C29.81 22.8125 29.81 22.8125 29.81 22.8125C29.8099 22.8125 29.8099 22.8125 29.8099 22.8125C29.8099 22.8125 29.8099 22.8125 29.8099 22.8125C29.8099 22.8125 29.8099 22.8125 29.8099 22.8125C29.8099 22.8125 29.8099 22.8125 29.8099 22.8125C29.8099 22.8125 29.8099 22.8125 29.8099 22.8125C29.8098 22.8125 29.8098 22.8125 29.8098 22.8125C29.8098 22.8125 29.8098 22.8125 29.8098 22.8125C29.8098 22.8125 29.8098 22.8125 29.8098 22.8125C29.8098 22.8125 29.8098 22.8125 29.8098 22.8125C29.8098 22.8125 29.8098 22.8125 29.8098 22.8125C29.8098 22.8125 29.8098 22.8125 29.8097 22.8125C29.8097 22.8125 29.8097 22.8125 29.8097 22.8125C29.8097 22.8125 29.8097 22.8125 29.8097 22.8125C29.8097 22.8125 29.8097 22.8125 29.8097 22.8125C29.8097 22.8125 29.8097 22.8125 29.8097 22.8125C29.8097 22.8125 29.8097 22.8125 29.8097 22.8125C29.8097 22.8125 29.8097 22.8125 29.8097 22.8125C29.8096 22.8125 29.8096 22.8125 29.8096 22.8125C29.8096 22.8125 29.8096 22.8125 29.8096 22.8125C29.8096 22.8125 29.8096 22.8125 29.8096 22.8125C29.8096 22.8125 29.8096 22.8125 29.8096 22.8125C29.8096 22.8125 29.8096 22.8125 29.8096 22.8125C29.8096 22.8125 29.8096 22.8125 29.8096 22.8125C29.8096 22.8125 29.8096 22.8125 29.8096 22.8125C29.8096 22.8125 29.8096 22.8125 29.8095 22.8125C29.8095 22.8125 29.8095 22.8125 29.8095 22.8125C29.8095 22.8125 29.8095 22.8125 29.8095 22.8125C29.8095 22.8125 29.8095 22.8125 29.8095 22.8125C29.8095 22.8125 29.8095 22.8125 29.8095 22.8125C29.8095 22.8125 29.8095 22.8125 29.8095 22.8125C29.8095 22.8125 29.8095 22.8125 29.8095 22.8125C29.8095 22.8125 29.8095 22.8125 29.8095 22.8125C29.8095 22.8125 29.8095 22.8125 29.8095 22.8125C29.8095 22.8125 29.8095 22.8125 29.8095 22.8125C29.8095 22.8125 29.8095 22.8125 29.8095 22.8125C29.8095 22.8125 29.8095 22.8125 29.8095 22.8125C29.8094 22.8125 29.8094 22.8125 29.8094 22.8125C29.8094 22.8125 29.8094 22.8125 29.8094 22.8125C29.8094 22.8125 29.8094 22.8125 29.8094 22.8125C29.8094 22.8125 29.8094 22.8125 29.8094 22.8125C29.8094 22.8125 29.8094 22.8125 29.8094 22.8125C29.8094 22.8125 29.8094 22.8125 29.8094 22.8125C29.8094 22.8125 29.8094 22.8125 29.8094 22.8125C29.8094 22.8125 29.8094 22.8125 29.8094 22.8125C29.8094 22.8125 29.8094 22.8125 29.8094 22.8125C29.8094 22.8125 29.8094 22.8125 29.8094 22.8125C29.8094 22.8125 29.8094 22.8125 29.8094 22.8125C29.8094 22.8125 29.8094 22.8125 29.8094 22.8125C29.8094 22.8125 29.8094 22.8125 29.8094 22.8125H29.8094C29.8094 22.8125 29.8094 22.8125 29.8094 22.8125C29.8094 22.8125 29.8094 22.8125 29.8094 22.8125C29.8094 22.8125 29.8094 22.8125 29.8094 25.8125C29.8094 28.8125 29.8094 28.8125 29.8094 28.8125C29.8094 28.8125 29.8094 28.8125 29.8094 28.8125C29.8094 28.8125 29.8094 28.8125 29.8094 28.8125H29.8094C29.8094 28.8125 29.8094 28.8125 29.8094 28.8125C29.8094 28.8125 29.8094 28.8125 29.8094 28.8125C29.8094 28.8125 29.8094 28.8125 29.8094 28.8125C29.8094 28.8125 29.8094 28.8125 29.8094 28.8125C29.8094 28.8125 29.8094 28.8125 29.8094 28.8125C29.8094 28.8125 29.8094 28.8125 29.8094 28.8125C29.8094 28.8125 29.8094 28.8125 29.8094 28.8125C29.8094 28.8125 29.8094 28.8125 29.8094 28.8125C29.8094 28.8125 29.8094 28.8125 29.8094 28.8125C29.8094 28.8125 29.8094 28.8125 29.8094 28.8125C29.8094 28.8125 29.8094 28.8125 29.8094 28.8125C29.8094 28.8125 29.8094 28.8125 29.8094 28.8125C29.8094 28.8125 29.8094 28.8125 29.8095 28.8125C29.8095 28.8125 29.8095 28.8125 29.8095 28.8125C29.8095 28.8125 29.8095 28.8125 29.8095 28.8125C29.8095 28.8125 29.8095 28.8125 29.8095 28.8125C29.8095 28.8125 29.8095 28.8125 29.8095 28.8125C29.8095 28.8125 29.8095 28.8125 29.8095 28.8125C29.8095 28.8125 29.8095 28.8125 29.8095 28.8125C29.8095 28.8125 29.8095 28.8125 29.8095 28.8125C29.8095 28.8125 29.8095 28.8125 29.8095 28.8125C29.8095 28.8125 29.8095 28.8125 29.8095 28.8125C29.8095 28.8125 29.8095 28.8125 29.8095 28.8125C29.8095 28.8125 29.8095 28.8125 29.8095 28.8125C29.8096 28.8125 29.8096 28.8125 29.8096 28.8125C29.8096 28.8125 29.8096 28.8125 29.8096 28.8125C29.8096 28.8125 29.8096 28.8125 29.8096 28.8125C29.8096 28.8125 29.8096 28.8125 29.8096 28.8125C29.8096 28.8125 29.8096 28.8125 29.8096 28.8125C29.8096 28.8125 29.8096 28.8125 29.8096 28.8125C29.8096 28.8125 29.8096 28.8125 29.8096 28.8125C29.8096 28.8125 29.8096 28.8125 29.8097 28.8125C29.8097 28.8125 29.8097 28.8125 29.8097 28.8125C29.8097 28.8125 29.8097 28.8125 29.8097 28.8125C29.8097 28.8125 29.8097 28.8125 29.8097 28.8125C29.8097 28.8125 29.8097 28.8125 29.8097 28.8125C29.8097 28.8125 29.8097 28.8125 29.8097 28.8125C29.8097 28.8125 29.8097 28.8125 29.8097 28.8125C29.8098 28.8125 29.8098 28.8125 29.8098 28.8125C29.8098 28.8125 29.8098 28.8125 29.8098 28.8125C29.8098 28.8125 29.8098 28.8125 29.8098 28.8125C29.8098 28.8125 29.8098 28.8125 29.8098 28.8125C29.8098 28.8125 29.8098 28.8125 29.8098 28.8125C29.8098 28.8125 29.8098 28.8125 29.8099 28.8125C29.8099 28.8125 29.8099 28.8125 29.8099 28.8125C29.8099 28.8125 29.8099 28.8125 29.8099 28.8125C29.8099 28.8125 29.8099 28.8125 29.8099 28.8125C29.8099 28.8125 29.8099 28.8125 29.8099 28.8125C29.8099 28.8125 29.8099 28.8125 29.81 28.8125C29.81 28.8125 29.81 28.8125 29.81 28.8125C29.81 28.8125 29.81 28.8125 29.81 28.8125C29.81 28.8125 29.81 28.8125 29.81 28.8125C29.81 28.8125 29.81 28.8125 29.81 28.8125C29.8101 28.8125 29.8101 28.8125 29.8101 28.8125C29.8101 28.8125 29.8101 28.8125 29.8101 28.8125C29.8101 28.8125 29.8101 28.8125 29.8101 28.8125C29.8101 28.8125 29.8101 28.8125 29.8101 28.8125C29.8101 28.8125 29.8102 28.8125 29.8102 28.8125C29.8102 28.8125 29.8102 28.8125 29.8102 28.8125C29.8102 28.8125 29.8102 28.8125 29.8102 28.8125C29.8102 28.8125 29.8102 28.8125 29.8102 28.8125C29.8102 28.8125 29.8103 28.8125 29.8103 28.8125C29.8103 28.8125 29.8103 28.8125 29.8103 28.8125C29.8103 28.8125 29.8103 28.8125 29.8103 28.8125C29.8103 28.8125 29.8103 28.8125 29.8103 28.8125C29.8104 28.8125 29.8104 28.8125 29.8104 28.8125C29.8104 28.8125 29.8104 28.8125 29.8104 28.8125C29.8104 28.8125 29.8104 28.8125 29.8104 28.8125C29.8104 28.8125 29.8104 28.8125 29.8105 28.8125C29.8105 28.8125 29.8105 28.8125 29.8105 28.8125C29.8105 28.8125 29.8105 28.8125 29.8105 28.8125C29.8105 28.8125 29.8105 28.8125 29.8105 28.8125C29.8106 28.8125 29.8106 28.8125 29.8106 28.8125C29.8106 28.8125 29.8106 28.8125 29.8106 28.8125C29.8106 28.8125 29.8106 28.8125 29.8106 28.8125C29.8107 28.8125 29.8107 28.8125 29.8107 28.8125C29.8107 28.8125 29.8107 28.8125 29.8107 28.8125C29.8107 28.8125 29.8107 28.8125 29.8107 28.8125C29.8107 28.8125 29.8108 28.8125 29.8108 28.8125C29.8108 28.8125 29.8108 28.8125 29.8108 28.8125C29.8108 28.8125 29.8108 28.8125 29.8108 28.8125C29.8109 28.8125 29.8109 28.8125 29.8109 28.8125C29.8109 28.8125 29.8109 28.8125 29.8109 28.8125C29.8109 28.8125 29.8109 28.8125 29.8109 28.8125C29.811 28.8125 29.811 28.8125 29.811 28.8125C29.811 28.8125 29.811 28.8125 29.811 28.8125C29.811 28.8125 29.811 28.8125 29.8111 28.8125C29.8111 28.8125 29.8111 28.8125 29.8111 28.8125C29.8111 28.8125 29.8111 28.8125 29.8111 28.8125C29.8111 28.8125 29.8111 28.8125 29.8112 28.8125C29.8112 28.8125 29.8112 28.8125 29.8112 28.8125C29.8112 28.8125 29.8112 28.8125 29.8112 28.8125C29.8113 28.8125 29.8113 28.8125 29.8113 28.8125C29.8113 28.8125 29.8113 28.8125 29.8113 28.8125C29.8113 28.8125 29.8113 28.8125 29.8114 28.8125C29.8114 28.8125 29.8114 28.8125 29.8114 28.8125C29.8114 28.8125 29.8114 28.8125 29.8114 28.8125C29.8114 28.8125 29.8115 28.8125 29.8115 28.8125C29.8115 28.8125 29.8115 28.8125 29.8115 28.8125C29.8115 28.8125 29.8115 28.8125 29.8116 28.8125C29.8116 28.8125 29.8116 28.8125 29.8116 28.8125C29.8116 28.8125 29.8116 28.8125 29.8116 28.8125C29.8117 28.8125 29.8117 28.8125 29.8117 28.8125C29.8117 28.8125 29.8117 28.8125 29.8117 28.8125C29.8117 28.8125 29.8118 28.8125 29.8118 28.8125C29.8118 28.8125 29.8118 28.8125 29.8118 28.8125C29.8118 28.8125 29.8118 28.8125 29.8119 28.8125C29.8119 28.8125 29.8119 28.8125 29.8119 28.8125C29.8119 28.8125 29.8119 28.8125 29.8119 28.8125C29.812 28.8125 29.812 28.8125 29.812 28.8125C29.812 28.8125 29.812 28.8125 29.812 28.8125C29.8121 28.8125 29.8121 28.8125 29.8121 28.8125C29.8121 28.8125 29.8121 28.8125 29.8121 28.8125C29.8121 28.8125 29.8122 28.8125 29.8122 28.8125C29.8122 28.8125 29.8122 28.8125 29.8122 28.8125C29.8122 28.8125 29.8123 28.8125 29.8123 28.8125C29.8123 28.8125 29.8123 28.8125 29.8123 28.8125C29.8123 28.8125 29.8124 28.8125 29.8124 28.8125C29.8124 28.8125 29.8124 28.8125 29.8124 28.8125C29.8124 28.8125 29.8125 28.8125 29.8125 28.8125C29.8125 28.8125 29.8125 28.8125 29.8125 28.8125C29.8125 28.8125 29.8126 28.8125 29.8126 28.8125C29.8126 28.8125 29.8126 28.8125 29.8126 28.8125C29.8126 28.8125 29.8127 28.8125 29.8127 28.8125C29.8127 28.8125 29.8127 28.8125 29.8127 28.8125C29.8127 28.8125 29.8128 28.8125 29.8128 28.8125C29.8128 28.8125 29.8128 28.8125 29.8128 28.8125C29.8128 28.8125 29.8129 28.8125 29.8129 28.8125C29.8129 28.8125 29.8129 28.8125 29.8129 28.8125C29.813 28.8125 29.813 28.8125 29.813 28.8125C29.813 28.8125 29.813 28.8125 29.813 28.8125C29.8131 28.8125 29.8131 28.8125 29.8131 28.8125C29.8131 28.8125 29.8131 28.8125 29.8132 28.8125C29.8132 28.8125 29.8132 28.8125 29.8132 28.8125C29.8132 28.8125 29.8132 28.8125 29.8133 28.8125C29.8133 28.8125 29.8133 28.8125 29.8133 28.8125C29.8133 28.8125 29.8134 28.8125 29.8134 28.8125C29.8134 28.8125 29.8134 28.8125 29.8134 28.8125C29.8134 28.8125 29.8135 28.8125 29.8135 28.8125C29.8135 28.8125 29.8135 28.8125 29.8135 28.8125C29.8136 28.8125 29.8136 28.8125 29.8136 28.8125C29.8136 28.8125 29.8136 28.8125 29.8137 28.8125C29.8137 28.8125 29.8137 28.8125 29.8137 28.8125C29.8137 28.8125 29.8138 28.8125 29.8138 28.8125C29.8138 28.8125 29.8138 28.8125 29.8138 28.8125C29.8139 28.8125 29.8139 28.8125 29.8139 28.8125C29.8139 28.8125 29.8139 28.8125 29.814 28.8125C29.814 28.8125 29.814 28.8125 29.814 28.8125C29.814 28.8125 29.8141 28.8125 29.8141 28.8125C29.8141 28.8125 29.8141 28.8125 29.8141 28.8125C29.8142 28.8125 29.8142 28.8125 29.8142 28.8125C29.8142 28.8125 29.8142 28.8125 29.8143 28.8125C29.8143 28.8125 29.8143 28.8125 29.8143 28.8125C29.8143 28.8125 29.8144 28.8125 29.8144 28.8125C29.8144 28.8125 29.8144 28.8125 29.8145 28.8125C29.8145 28.8125 29.8145 28.8125 29.8145 28.8125C29.8145 28.8125 29.8146 28.8125 29.8146 28.8125C29.8146 28.8125 29.8146 28.8125 29.8146 28.8125C29.8147 28.8125 29.8147 28.8125 29.8147 28.8125C29.8147 28.8125 29.8148 28.8125 29.8148 28.8125C29.8148 28.8125 29.8148 28.8125 29.8148 28.8125C29.8149 28.8125 29.8149 28.8125 29.8149 28.8125C29.8149 28.8125 29.815 28.8125 29.815 28.8125C29.815 28.8125 29.815 28.8125 29.815 28.8125C29.8151 28.8125 29.8151 28.8125 29.8151 28.8125C29.8151 28.8125 29.8152 28.8125 29.8152 28.8125C29.8152 28.8125 29.8152 28.8125 29.8152 28.8125C29.8153 28.8125 29.8153 28.8125 29.8153 28.8125C29.8153 28.8125 29.8154 28.8125 29.8154 28.8125C29.8154 28.8125 29.8154 28.8125 29.8155 28.8125C29.8155 28.8125 29.8155 28.8125 29.8155 28.8125C29.8155 28.8125 29.8156 28.8125 29.8156 28.8125C29.8156 28.8125 29.8156 28.8125 29.8157 28.8125C29.8157 28.8125 29.8157 28.8125 29.8157 28.8125C29.8158 28.8125 29.8158 28.8125 29.8158 28.8125C29.8158 28.8125 29.8159 28.8125 29.8159 28.8125C29.8159 28.8125 29.8159 28.8125 29.816 28.8125C29.816 28.8125 29.816 28.8125 29.816 28.8125C29.816 28.8125 29.8161 28.8125 29.8161 28.8125C29.8161 28.8125 29.8161 28.8125 29.8162 28.8125C29.8162 28.8125 29.8162 28.8125 29.8162 28.8125C29.8163 28.8125 29.8163 28.8125 29.8163 28.8125C29.8163 28.8125 29.8164 28.8125 29.8164 28.8125C29.8164 28.8125 29.8164 28.8125 29.8165 28.8125C29.8165 28.8125 29.8165 28.8125 29.8165 28.8125C29.8166 28.8125 29.8166 28.8125 29.8166 28.8125C29.8166 28.8125 29.8167 28.8125 29.8167 28.8125C29.8167 28.8125 29.8167 28.8125 29.8168 28.8125C29.8168 28.8125 29.8168 28.8125 29.8169 28.8125C29.8169 28.8125 29.8169 28.8125 29.8169 28.8125C29.817 28.8125 29.817 28.8125 29.817 28.8125C29.817 28.8125 29.8171 28.8125 29.8171 28.8125C29.8171 28.8125 29.8171 28.8125 29.8172 28.8125C29.8172 28.8125 29.8172 28.8125 29.8172 28.8125C29.8173 28.8125 29.8173 28.8125 29.8173 28.8125C29.8173 28.8125 29.8174 28.8125 29.8174 28.8125C29.8174 28.8125 29.8175 28.8125 29.8175 28.8125C29.8175 28.8125 29.8175 28.8125 29.8176 28.8125C29.8176 28.8125 29.8176 28.8125 29.8176 28.8125C29.8177 28.8125 29.8177 28.8125 29.8177 28.8125C29.8178 28.8125 29.8178 28.8125 29.8178 28.8125C29.8178 28.8125 29.8179 28.8125 29.8179 28.8125C29.8179 28.8125 29.8179 28.8125 29.818 28.8125C29.818 28.8125 29.818 28.8125 29.8181 28.8125C29.8181 28.8125 29.8181 28.8125 29.8181 28.8125C29.8182 28.8125 29.8182 28.8125 29.8182 28.8125C29.8183 28.8125 29.8183 28.8125 29.8183 28.8125C29.8183 28.8125 29.8184 28.8125 29.8184 28.8125C29.8184 28.8125 29.8184 28.8125 29.8185 28.8125C29.8185 28.8125 29.8185 28.8125 29.8186 28.8125C29.8186 28.8125 29.8186 28.8125 29.8186 28.8125C29.8187 28.8125 29.8187 28.8125 29.8187 28.8125C29.8188 28.8125 29.8188 28.8125 29.8188 28.8125C29.8189 28.8125 29.8189 28.8125 29.8189 28.8125C29.8189 28.8125 29.819 28.8125 29.819 28.8125C29.819 28.8125 29.8191 28.8125 29.8191 28.8125C29.8191 28.8125 29.8191 28.8125 29.8192 28.8125C29.8192 28.8125 29.8192 28.8125 29.8193 28.8125C29.8193 28.8125 29.8193 28.8125 29.8194 28.8125C29.8194 28.8125 29.8194 28.8125 29.8194 28.8125C29.8195 28.8125 29.8195 28.8125 29.8195 28.8125C29.8196 28.8125 29.8196 28.8125 29.8196 28.8125C29.8197 28.8125 29.8197 28.8125 29.8197 28.8125C29.8197 28.8125 29.8198 28.8125 29.8198 28.8125C29.8198 28.8125 29.8199 28.8125 29.8199 28.8125C29.8199 28.8125 29.82 28.8125 29.82 28.8125C29.82 28.8125 29.82 28.8125 29.8201 28.8125C29.8201 28.8125 29.8201 28.8125 29.8202 28.8125C29.8202 28.8125 29.8202 28.8125 29.8203 28.8125C29.8203 28.8125 29.8203 28.8125 29.8204 28.8125C29.8204 28.8125 29.8204 28.8125 29.8205 28.8125C29.8205 28.8125 29.8205 28.8125 29.8205 28.8125C29.8206 28.8125 29.8206 28.8125 29.8206 28.8125C29.8207 28.8125 29.8207 28.8125 29.8207 28.8125C29.8208 28.8125 29.8208 28.8125 29.8208 28.8125C29.8209 28.8125 29.8209 28.8125 29.8209 28.8125C29.821 28.8125 29.821 28.8125 29.821 28.8125C29.8211 28.8125 29.8211 28.8125 29.8211 28.8125C29.8212 28.8125 29.8212 28.8125 29.8212 28.8125C29.8212 28.8125 29.8213 28.8125 29.8213 28.8125C29.8213 28.8125 29.8214 28.8125 29.8214 28.8125C29.8214 28.8125 29.8215 28.8125 29.8215 28.8125C29.8215 28.8125 29.8216 28.8125 29.8216 28.8125C29.8216 28.8125 29.8217 28.8125 29.8217 28.8125C29.8217 28.8125 29.8218 28.8125 29.8218 28.8125C29.8218 28.8125 29.8219 28.8125 29.8219 28.8125C29.8219 28.8125 29.822 28.8125 29.822 28.8125C29.822 28.8125 29.8221 28.8125 29.8221 28.8125C29.8221 28.8125 29.8222 28.8125 29.8222 28.8125C29.8222 28.8125 29.8223 28.8125 29.8223 28.8125C29.8223 28.8125 29.8224 28.8125 29.8224 28.8125C29.8224 28.8125 29.8225 28.8125 29.8225 28.8125V22.8125ZM29.8525 22.8126L21.085 22.7251L21.0251 28.7248L29.7926 28.8123L29.8525 22.8126ZM21.055 22.725C22.0067 22.725 22.7821 23.5015 22.7592 24.4664L16.7609 24.3236C16.7029 26.7585 18.6683 28.725 21.055 28.725V22.725ZM22.76 24.395C22.76 25.3865 21.9593 26.1 21.0725 26.1V20.1C18.7508 20.1 16.76 21.9685 16.76 24.395H22.76ZM21.0725 23.1C21.0725 20.1 21.0725 23.1 21.0725 26.1C21.0725 26.1 21.0725 26.1 21.0725 26.1C21.0725 26.1 21.0725 26.1 21.0725 26.1H21.0725C21.0725 26.1 21.0725 26.1 21.0725 26.1H21.0725C21.0725 26.1 21.0725 26.1 21.0725 26.1C21.0725 26.1 21.0725 26.1 21.0725 26.1C21.0725 26.1 21.0725 26.1 21.0725 26.1H21.0725C21.0725 26.1 21.0725 26.1 21.0725 26.1C21.0725 26.1 21.0725 26.1 21.0725 26.1C21.0725 26.1 21.0725 26.1 21.0725 26.1H21.0725C21.0725 26.1 21.0725 26.1 21.0725 26.1C21.0725 26.1 21.0725 26.1 21.0725 26.1C21.0725 26.1 21.0725 26.1 21.0725 26.1C21.0725 26.1 21.0725 26.1 21.0725 26.1C21.0725 26.1 21.0725 26.1 21.0725 26.1C21.0725 26.1 21.0725 26.1 21.0725 26.1C21.0725 26.1 21.0725 26.1 21.0725 26.1C21.0725 26.1 21.0725 26.1 21.0725 26.1C21.0725 26.1 21.0725 26.1 21.0725 26.1C21.0725 26.1 21.0725 26.1 21.0725 26.1C21.0725 26.1 21.0725 26.1 21.0725 26.1C21.0725 26.1 21.0725 26.1 21.0725 26.1C21.0725 26.1 21.0725 26.1 21.0725 26.1C21.0725 26.1 21.0725 26.1 21.0725 26.1C21.0725 26.1 21.0725 26.1 21.0725 26.1C21.0725 26.1 21.0725 26.1 21.0725 26.1C21.0725 26.1 21.0725 26.1 21.0725 26.1C21.0725 26.1 21.0725 26.1 21.0725 26.1C21.0725 26.1 21.0725 26.1 21.0725 26.1C21.0725 26.1 21.0725 26.1 21.0725 26.1C21.0725 26.1 21.0725 26.1 21.0725 26.1C21.0725 26.1 21.0725 26.1 21.0725 26.1C21.0725 26.1 21.0725 26.1 21.0725 26.1C21.0725 26.1 21.0725 26.1 21.0725 26.1C21.0725 26.1 21.0725 26.1 21.0725 26.1C21.0725 26.1 21.0725 26.1 21.0725 26.1C21.0725 26.1 21.0725 26.1 21.0725 26.1C21.0725 26.1 21.0725 26.1 21.0725 26.1C21.0725 26.1 21.0725 26.1 21.0725 26.1C21.0725 26.1 21.0725 26.1 21.0725 26.1C21.0725 26.1 21.0725 26.1 21.0725 26.1C21.0725 26.1 21.0725 26.1 21.0725 26.1C21.0725 26.1 21.0725 26.1 21.0725 26.1C21.0725 26.1 21.0725 26.1 21.0725 26.1C21.0725 26.1 21.0725 26.1 21.0725 26.1C21.0725 26.1 21.0725 26.1 21.0725 26.1C21.0725 26.1 21.0725 26.1 21.0725 26.1C21.0725 26.1 21.0726 26.1 21.0726 26.1C21.0726 26.1 21.0726 26.1 21.0726 26.1C21.0726 26.1 21.0726 26.1 21.0726 26.1C21.0726 26.1 21.0726 26.1 21.0726 26.1C21.0726 26.1 21.0726 26.1 21.0726 26.1C21.0726 26.1 21.0726 26.1 21.0726 26.1C21.0726 26.1 21.0726 26.1 21.0726 26.1C21.0726 26.1 21.0726 26.1 21.0726 26.1C21.0726 26.1 21.0726 26.1 21.0726 26.1C21.0726 26.1 21.0726 26.1 21.0726 26.1C21.0726 26.1 21.0726 26.1 21.0726 26.1C21.0726 26.1 21.0726 26.1 21.0726 26.1C21.0726 26.1 21.0726 26.1 21.0726 26.1C21.0726 26.1 21.0726 26.1 21.0726 26.1C21.0726 26.1 21.0726 26.1 21.0726 26.1C21.0726 26.1 21.0726 26.1 21.0726 26.1C21.0726 26.1 21.0726 26.1 21.0726 26.1C21.0726 26.1 21.0726 26.1 21.0726 26.1C21.0726 26.1 21.0726 26.1 21.0726 26.1C21.0726 26.1 21.0726 26.1 21.0726 26.1C21.0726 26.1 21.0726 26.1 21.0726 26.1C21.0726 26.1 21.0726 26.1 21.0726 26.1C21.0726 26.1 21.0726 26.1 21.0726 26.1C21.0726 26.1 21.0726 26.1 21.0726 26.1C21.0726 26.1 21.0726 26.1 21.0726 26.1C21.0726 26.1 21.0726 26.1 21.0726 26.1C21.0726 26.1 21.0726 26.1 21.0726 26.1C21.0726 26.1 21.0726 26.1 21.0726 26.1C21.0726 26.1 21.0726 26.1 21.0726 26.1C21.0726 26.1 21.0726 26.1 21.0726 26.1C21.0726 26.1 21.0726 26.1 21.0726 26.1C21.0726 26.1 21.0726 26.1 21.0726 26.1C21.0726 26.1 21.0726 26.1 21.0726 26.1C21.0726 26.1 21.0726 26.1 21.0726 26.1C21.0726 26.1 21.0726 26.1 21.0726 26.1C21.0726 26.1 21.0726 26.1 21.0726 26.1C21.0726 26.1 21.0726 26.1 21.0726 26.1C21.0726 26.1 21.0726 26.1 21.0726 26.1C21.0726 26.1 21.0726 26.1 21.0727 26.1C21.0727 26.1 21.0727 26.1 21.0727 26.1C21.0727 26.1 21.0727 26.1 21.0727 26.1C21.0727 26.1 21.0727 26.1 21.0727 26.1C21.0727 26.1 21.0727 26.1 21.0727 26.1C21.0727 26.1 21.0727 26.1 21.0727 26.1C21.0727 26.1 21.0727 26.1 21.0727 26.1C21.0727 26.1 21.0727 26.1 21.0727 26.1C21.0727 26.1 21.0727 26.1 21.0727 26.1C21.0727 26.1 21.0727 26.1 21.0727 26.1C21.0727 26.1 21.0727 26.1 21.0727 26.1C21.0727 26.1 21.0727 26.1 21.0727 26.1C21.0727 26.1 21.0727 26.1 21.0727 26.1C21.0727 26.1 21.0727 26.1 21.0727 26.1C21.0727 26.1 21.0727 26.1 21.0727 26.1C21.0727 26.1 21.0727 26.1 21.0727 26.1C21.0727 26.1 21.0727 26.1 21.0727 26.1C21.0727 26.1 21.0727 26.1 21.0727 26.1C21.0727 26.1 21.0727 26.1 21.0727 26.1C21.0727 26.1 21.0727 26.1 21.0727 26.1C21.0727 26.1 21.0727 26.1 21.0727 26.1C21.0727 26.1 21.0727 26.1 21.0728 26.1C21.0728 26.1 21.0728 26.1 21.0728 26.1C21.0728 26.1 21.0728 26.1 21.0728 26.1C21.0728 26.1 21.0728 26.1 21.0728 26.1C21.0728 26.1 21.0728 26.1 21.0728 26.1C21.0728 26.1 21.0728 26.1 21.0728 26.1C21.0728 26.1 21.0728 26.1 21.0728 26.1C21.0728 26.1 21.0728 26.1 21.0728 26.1C21.0728 26.1 21.0728 26.1 21.0728 26.1C21.0728 26.1 21.0728 26.1 21.0728 26.1C21.0728 26.1 21.0728 26.1 21.0728 26.1C21.0728 26.1 21.0728 26.1 21.0728 26.1C21.0728 26.1 21.0728 26.1 21.0728 26.1C21.0728 26.1 21.0728 26.1 21.0728 26.1C21.0728 26.1 21.0728 26.1 21.0728 26.1C21.0728 26.1 21.0728 26.1 21.0728 26.1C21.0728 26.1 21.0729 26.1 21.0729 26.1C21.0729 26.1 21.0729 26.1 21.0729 26.1C21.0729 26.1 21.0729 26.1 21.0729 26.1C21.0729 26.1 21.0729 26.1 21.0729 26.1C21.0729 26.1 21.0729 26.1 21.0729 26.1C21.0729 26.1 21.0729 26.1 21.0729 26.1C21.0729 26.1 21.0729 26.1 21.0729 26.1C21.0729 26.1 21.0729 26.1 21.0729 26.1C21.0729 26.1 21.0729 26.1 21.0729 26.1C21.0729 26.1 21.0729 26.1 21.0729 26.1C21.0729 26.1 21.0729 26.1 21.0729 26.1C21.0729 26.1 21.0729 26.1 21.0729 26.1C21.0729 26.1 21.0729 26.1 21.073 26.1C21.073 26.1 21.073 26.1 21.073 26.1C21.073 26.1 21.073 26.1 21.073 26.1C21.073 26.1 21.073 26.1 21.073 26.1C21.073 26.1 21.073 26.1 21.073 26.1C21.073 26.1 21.073 26.1 21.073 26.1C21.073 26.1 21.073 26.1 21.073 26.1C21.073 26.1 21.073 26.1 21.073 26.1C21.073 26.1 21.073 26.1 21.073 26.1C21.073 26.1 21.073 26.1 21.073 26.1C21.073 26.1 21.073 26.1 21.073 26.1C21.073 26.1 21.0731 26.1 21.0731 26.1C21.0731 26.1 21.0731 26.1 21.0731 26.1C21.0731 26.1 21.0731 26.1 21.0731 26.1C21.0731 26.1 21.0731 26.1 21.0731 26.1C21.0731 26.1 21.0731 26.1 21.0731 26.1C21.0731 26.1 21.0731 26.1 21.0731 26.1C21.0731 26.1 21.0731 26.1 21.0731 26.1C21.0731 26.1 21.0731 26.1 21.0731 26.1C21.0731 26.1 21.0731 26.1 21.0731 26.1C21.0731 26.1 21.0731 26.1 21.0731 26.1C21.0732 26.1 21.0732 26.1 21.0732 26.1C21.0732 26.1 21.0732 26.1 21.0732 26.1C21.0732 26.1 21.0732 26.1 21.0732 26.1C21.0732 26.1 21.0732 26.1 21.0732 26.1C21.0732 26.1 21.0732 26.1 21.0732 26.1C21.0732 26.1 21.0732 26.1 21.0732 26.1C21.0732 26.1 21.0732 26.1 21.0732 26.1C21.0732 26.1 21.0732 26.1 21.0732 26.1C21.0732 26.1 21.0733 26.1 21.0733 26.1C21.0733 26.1 21.0733 26.1 21.0733 26.1C21.0733 26.1 21.0733 26.1 21.0733 26.1C21.0733 26.1 21.0733 26.1 21.0733 26.1C21.0733 26.1 21.0733 26.1 21.0733 26.1C21.0733 26.1 21.0733 26.1 21.0733 26.1C21.0733 26.1 21.0733 26.1 21.0733 26.1C21.0733 26.1 21.0733 26.1 21.0733 26.1C21.0733 26.1 21.0734 26.1 21.0734 26.1C21.0734 26.1 21.0734 26.1 21.0734 26.1C21.0734 26.1 21.0734 26.1 21.0734 26.1C21.0734 26.1 21.0734 26.1 21.0734 26.1C21.0734 26.1 21.0734 26.1 21.0734 26.1C21.0734 26.1 21.0734 26.1 21.0734 26.1C21.0734 26.1 21.0734 26.1 21.0734 26.1C21.0734 26.1 21.0735 26.1 21.0735 26.1C21.0735 26.1 21.0735 26.1 21.0735 26.1C21.0735 26.1 21.0735 26.1 21.0735 26.1C21.0735 26.1 21.0735 26.1 21.0735 26.1C21.0735 26.1 21.0735 26.1 21.0735 26.1C21.0735 26.1 21.0735 26.1 21.0735 26.1C21.0735 26.1 21.0735 26.1 21.0735 26.1C21.0736 26.1 21.0736 26.1 21.0736 26.1C21.0736 26.1 21.0736 26.1 21.0736 26.1C21.0736 26.1 21.0736 26.1 21.0736 26.1C21.0736 26.1 21.0736 26.1 21.0736 26.1C21.0736 26.1 21.0736 26.1 21.0736 26.1C21.0736 26.1 21.0736 26.1 21.0736 26.1C21.0736 26.1 21.0737 26.1 21.0737 26.1C21.0737 26.1 21.0737 26.1 21.0737 26.1C21.0737 26.1 21.0737 26.1 21.0737 26.1C21.0737 26.1 21.0737 26.1 21.0737 26.1C21.0737 26.1 21.0737 26.1 21.0737 26.1C21.0737 26.1 21.0737 26.1 21.0737 26.1C21.0738 26.1 21.0738 26.1 21.0738 26.1C21.0738 26.1 21.0738 26.1 21.0738 26.1C21.0738 26.1 21.0738 26.1 21.0738 26.1C21.0738 26.1 21.0738 26.1 21.0738 26.1C21.0738 26.1 21.0738 26.1 21.0738 26.1C21.0738 26.1 21.0738 26.1 21.0739 26.1C21.0739 26.1 21.0739 26.1 21.0739 26.1C21.0739 26.1 21.0739 26.1 21.0739 26.1C21.0739 26.1 21.0739 26.1 21.0739 26.1C21.0739 26.1 21.0739 26.1 21.0739 26.1C21.0739 26.1 21.0739 26.1 21.0739 26.1C21.074 26.1 21.074 26.1 21.074 26.1C21.074 26.1 21.074 26.1 21.074 26.1C21.074 26.1 21.074 26.1 21.074 26.1C21.074 26.1 21.074 26.1 21.074 26.1C21.074 26.1 21.074 26.1 21.074 26.1C21.0741 26.1 21.0741 26.1 21.0741 26.1C21.0741 26.1 21.0741 26.1 21.0741 26.1C21.0741 26.1 21.0741 26.1 21.0741 26.1C21.0741 26.1 21.0741 26.1 21.0741 26.1C21.0741 26.1 21.0741 26.1 21.0741 26.1C21.0742 26.1 21.0742 26.1 21.0742 26.1C21.0742 26.1 21.0742 26.1 21.0742 26.1C21.0742 26.1 21.0742 26.1 21.0742 26.1C21.0742 26.1 21.0742 26.1 21.0742 26.1C21.0742 26.1 21.0742 26.1 21.0743 26.1C21.0743 26.1 21.0743 26.1 21.0743 26.1C21.0743 26.1 21.0743 26.1 21.0743 26.1C21.0743 26.1 21.0743 26.1 21.0743 26.1C21.0743 26.1 21.0743 26.1 21.0743 26.1C21.0744 26.1 21.0744 26.1 21.0744 26.1C21.0744 26.1 21.0744 26.1 21.0744 26.1C21.0744 26.1 21.0744 26.1 21.0744 26.1C21.0744 26.1 21.0744 26.1 21.0744 26.1C21.0744 26.1 21.0745 26.1 21.0745 26.1C21.0745 26.1 21.0745 26.1 21.0745 26.1C21.0745 26.1 21.0745 26.1 21.0745 26.1C21.0745 26.1 21.0745 26.1 21.0745 26.1C21.0745 26.1 21.0745 26.1 21.0746 26.1C21.0746 26.1 21.0746 26.1 21.0746 26.1C21.0746 26.1 21.0746 26.1 21.0746 26.1C21.0746 26.1 21.0746 26.1 21.0746 26.1C21.0746 26.1 21.0746 26.1 21.0747 26.1C21.0747 26.1 21.0747 26.1 21.0747 26.1C21.0747 26.1 21.0747 26.1 21.0747 26.1C21.0747 26.1 21.0747 26.1 21.0747 26.1C21.0747 26.1 21.0747 26.1 21.0748 26.1C21.0748 26.1 21.0748 26.1 21.0748 26.1C21.0748 26.1 21.0748 26.1 21.0748 26.1C21.0748 26.1 21.0748 26.1 21.0748 26.1C21.0748 26.1 21.0749 26.1 21.0749 26.1C21.0749 26.1 21.0749 26.1 21.0749 26.1C21.0749 26.1 21.0749 26.1 21.0749 26.1C21.0749 26.1 21.0749 26.1 21.0749 26.1C21.075 26.1 21.075 26.1 21.075 26.1C21.075 26.1 21.075 26.1 21.075 26.1C21.075 26.1 21.075 26.1 21.075 26.1C21.075 26.1 21.075 26.1 21.0751 26.1C21.0751 26.1 21.0751 26.1 21.0751 26.1C21.0751 26.1 21.0751 26.1 21.0751 26.1C21.0751 26.1 21.0751 26.1 21.0751 26.1C21.0752 26.1 21.0752 26.1 21.0752 26.1C21.0752 26.1 21.0752 26.1 21.0752 26.1C21.0752 26.1 21.0752 26.1 21.0752 26.1C21.0752 26.1 21.0753 26.1 21.0753 26.1C21.0753 26.1 21.0753 26.1 21.0753 26.1C21.0753 26.1 21.0753 26.1 21.0753 26.1C21.0753 26.1 21.0753 26.1 21.0754 26.1C21.0754 26.1 21.0754 26.1 21.0754 26.1C21.0754 26.1 21.0754 26.1 21.0754 26.1C21.0754 26.1 21.0754 26.1 21.0754 26.1C21.0755 26.1 21.0755 26.1 21.0755 26.1C21.0755 26.1 21.0755 26.1 21.0755 26.1C21.0755 26.1 21.0755 26.1 21.0755 26.1C21.0755 26.1 21.0756 26.1 21.0756 26.1C21.0756 26.1 21.0756 26.1 21.0756 26.1C21.0756 26.1 21.0756 26.1 21.0756 26.1C21.0756 26.1 21.0757 26.1 21.0757 26.1C21.0757 26.1 21.0757 26.1 21.0757 26.1C21.0757 26.1 21.0757 26.1 21.0757 26.1C21.0757 26.1 21.0758 26.1 21.0758 26.1C21.0758 26.1 21.0758 26.1 21.0758 26.1C21.0758 26.1 21.0758 26.1 21.0758 26.1C21.0758 26.1 21.0759 26.1 21.0759 26.1C21.0759 26.1 21.0759 26.1 21.0759 26.1C21.0759 26.1 21.0759 26.1 21.0759 26.1C21.0759 26.1 21.076 26.1 21.076 26.1C21.076 26.1 21.076 26.1 21.076 26.1C21.076 26.1 21.076 26.1 21.076 26.1C21.0761 26.1 21.0761 26.1 21.0761 26.1C21.0761 26.1 21.0761 26.1 21.0761 26.1C21.0761 26.1 21.0761 26.1 21.0761 26.1C21.0762 26.1 21.0762 26.1 21.0762 26.1C21.0762 26.1 21.0762 26.1 21.0762 26.1C21.0762 26.1 21.0762 26.1 21.0763 26.1C21.0763 26.1 21.0763 26.1 21.0763 26.1C21.0763 26.1 21.0763 26.1 21.0763 26.1C21.0763 26.1 21.0764 26.1 21.0764 26.1C21.0764 26.1 21.0764 26.1 21.0764 26.1C21.0764 26.1 21.0764 26.1 21.0764 26.1C21.0765 26.1 21.0765 26.1 21.0765 26.1C21.0765 26.1 21.0765 26.1 21.0765 26.1C21.0765 26.1 21.0765 26.1 21.0766 26.1C21.0766 26.1 21.0766 26.1 21.0766 26.1C21.0766 26.1 21.0766 26.1 21.0766 26.1C21.0766 26.1 21.0767 26.1 21.0767 26.1C21.0767 26.1 21.0767 26.1 21.0767 26.1C21.0767 26.1 21.0767 26.1 21.0768 26.1C21.0768 26.1 21.0768 26.1 21.0768 26.1C21.0768 26.1 21.0768 26.1 21.0768 26.1C21.0768 26.1 21.0769 26.1 21.0769 26.1C21.0769 26.1 21.0769 26.1 21.0769 26.1C21.0769 26.1 21.0769 26.1 21.077 26.1C21.077 26.1 21.077 26.1 21.077 26.1C21.077 26.1 21.077 26.1 21.077 26.1C21.0771 26.1 21.0771 26.1 21.0771 26.1C21.0771 26.1 21.0771 26.1 21.0771 26.1C21.0771 26.1 21.0771 26.1 21.0772 26.1C21.0772 26.1 21.0772 26.1 21.0772 26.1C21.0772 26.1 21.0772 26.1 21.0772 26.1C21.0773 26.1 21.0773 26.1 21.0773 26.1C21.0773 26.1 21.0773 26.1 21.0773 26.1C21.0773 26.1 21.0774 26.1 21.0774 26.1C21.0774 26.1 21.0774 26.1 21.0774 26.1C21.0774 26.1 21.0775 26.1 21.0775 26.1C21.0775 26.1 21.0775 26.1 21.0775 26.1C21.0775 26.1 21.0775 26.1 21.0776 26.1C21.0776 26.1 21.0776 26.1 21.0776 26.1C21.0776 26.1 21.0776 26.1 21.0776 26.1C21.0777 26.1 21.0777 26.1 21.0777 26.1C21.0777 26.1 21.0777 26.1 21.0777 26.1C21.0777 26.1 21.0778 26.1 21.0778 26.1C21.0778 26.1 21.0778 26.1 21.0778 26.1C21.0778 26.1 21.0779 26.1 21.0779 26.1C21.0779 26.1 21.0779 26.1 21.0779 26.1C21.0779 26.1 21.078 26.1 21.078 26.1C21.078 26.1 21.078 26.1 21.078 26.1C21.078 26.1 21.078 26.1 21.0781 26.1C21.0781 26.1 21.0781 26.1 21.0781 26.1C21.0781 26.1 21.0781 26.1 21.0782 26.1C21.0782 26.1 21.0782 26.1 21.0782 26.1C21.0782 26.1 21.0782 26.1 21.0783 26.1C21.0783 26.1 21.0783 26.1 21.0783 26.1C21.0783 26.1 21.0783 26.1 21.0784 26.1C21.0784 26.1 21.0784 26.1 21.0784 26.1C21.0784 26.1 21.0784 26.1 21.0785 26.1C21.0785 26.1 21.0785 26.1 21.0785 26.1C21.0785 26.1 21.0785 26.1 21.0786 26.1C21.0786 26.1 21.0786 26.1 21.0786 26.1C21.0786 26.1 21.0786 26.1 21.0787 26.1C21.0787 26.1 21.0787 26.1 21.0787 26.1C21.0787 26.1 21.0787 26.1 21.0788 26.1C21.0788 26.1 21.0788 26.1 21.0788 26.1C21.0788 26.1 21.0788 26.1 21.0789 26.1C21.0789 26.1 21.0789 26.1 21.0789 26.1C21.0789 26.1 21.0789 26.1 21.079 26.1C21.079 26.1 21.079 26.1 21.079 26.1C21.079 26.1 21.0791 26.1 21.0791 26.1C21.0791 26.1 21.0791 26.1 21.0791 26.1C21.0791 26.1 21.0792 26.1 21.0792 26.1C21.0792 26.1 21.0792 26.1 21.0792 26.1C21.0792 26.1 21.0793 26.1 21.0793 26.1C21.0793 26.1 21.0793 26.1 21.0793 26.1C21.0794 26.1 21.0794 26.1 21.0794 26.1C21.0794 26.1 21.0794 26.1 21.0794 26.1C21.0795 26.1 21.0795 26.1 21.0795 26.1C21.0795 26.1 21.0795 26.1 21.0796 26.1C21.0796 26.1 21.0796 26.1 21.0796 26.1C21.0796 26.1 21.0797 26.1 21.0797 26.1C21.0797 26.1 21.0797 26.1 21.0797 26.1C21.0797 26.1 21.0798 26.1 21.0798 26.1C21.0798 26.1 21.0798 26.1 21.0798 26.1C21.0799 26.1 21.0799 26.1 21.0799 26.1C21.0799 26.1 21.0799 26.1 21.08 26.1C21.08 26.1 21.08 26.1 21.08 26.1C21.08 26.1 21.0801 26.1 21.0801 26.1C21.0801 26.1 21.0801 26.1 21.0801 26.1C21.0802 26.1 21.0802 26.1 21.0802 26.1C21.0802 26.1 21.0802 26.1 21.0803 26.1C21.0803 26.1 21.0803 26.1 21.0803 26.1C21.0803 26.1 21.0804 26.1 21.0804 26.1C21.0804 26.1 21.0804 26.1 21.0804 26.1C21.0805 26.1 21.0805 26.1 21.0805 26.1C21.0805 26.1 21.0805 26.1 21.0806 26.1C21.0806 26.1 21.0806 26.1 21.0806 26.1C21.0806 26.1 21.0807 26.1 21.0807 26.1C21.0807 26.1 21.0807 26.1 21.0807 26.1C21.0808 26.1 21.0808 26.1 21.0808 26.1C21.0808 26.1 21.0808 26.1 21.0809 26.1C21.0809 26.1 21.0809 26.1 21.0809 26.1C21.0809 26.1 21.081 26.1 21.081 26.1C21.081 26.1 21.081 26.1 21.0811 26.1C21.0811 26.1 21.0811 26.1 21.0811 26.1C21.0811 26.1 21.0812 26.1 21.0812 26.1C21.0812 26.1 21.0812 26.1 21.0812 26.1C21.0813 26.1 21.0813 26.1 21.0813 26.1C21.0813 26.1 21.0814 26.1 21.0814 26.1C21.0814 26.1 21.0814 26.1 21.0814 26.1C21.0815 26.1 21.0815 26.1 21.0815 26.1C21.0815 26.1 21.0815 26.1 21.0816 26.1C21.0816 26.1 21.0816 26.1 21.0816 26.1C21.0817 26.1 21.0817 26.1 21.0817 26.1C21.0817 26.1 21.0817 26.1 21.0818 26.1C21.0818 26.1 21.0818 26.1 21.0818 26.1C21.0819 26.1 21.0819 26.1 21.0819 26.1C21.0819 26.1 21.082 26.1 21.082 26.1C21.082 26.1 21.082 26.1 21.082 26.1C21.0821 26.1 21.0821 26.1 21.0821 26.1C21.0821 26.1 21.0822 26.1 21.0822 26.1C21.0822 26.1 21.0822 26.1 21.0822 26.1C21.0823 26.1 21.0823 26.1 21.0823 26.1C21.0823 26.1 21.0824 26.1 21.0824 26.1C21.0824 26.1 21.0824 26.1 21.0825 26.1C21.0825 26.1 21.0825 26.1 21.0825 26.1C21.0826 26.1 21.0826 26.1 21.0826 26.1C21.0826 26.1 21.0826 26.1 21.0827 26.1C21.0827 26.1 21.0827 26.1 21.0827 26.1C21.0828 26.1 21.0828 26.1 21.0828 26.1C21.0828 26.1 21.0829 26.1 21.0829 26.1C21.0829 26.1 21.0829 26.1 21.083 26.1C21.083 26.1 21.083 26.1 21.083 26.1C21.0831 26.1 21.0831 26.1 21.0831 26.1C21.0831 26.1 21.0832 26.1 21.0832 26.1C21.0832 26.1 21.0832 26.1 21.0833 26.1C21.0833 26.1 21.0833 26.1 21.0833 26.1C21.0833 26.1 21.0834 26.1 21.0834 26.1C21.0834 26.1 21.0834 26.1 21.0835 26.1C21.0835 26.1 21.0835 26.1 21.0835 26.1C21.0836 26.1 21.0836 26.1 21.0836 26.1C21.0837 26.1 21.0837 26.1 21.0837 26.1C21.0837 26.1 21.0838 26.1 21.0838 26.1C21.0838 26.1 21.0838 26.1 21.0839 26.1C21.0839 26.1 21.0839 26.1 21.0839 26.1C21.084 26.1 21.084 26.1 21.084 26.1C21.084 26.1 21.0841 26.1 21.0841 26.1C21.0841 26.1 21.0841 26.1 21.0842 26.1C21.0842 26.1 21.0842 26.1 21.0842 26.1C21.0843 26.1 21.0843 26.1 21.0843 26.1C21.0843 26.1 21.0844 26.1 21.0844 26.1C21.0844 26.1 21.0845 26.1 21.0845 26.1C21.0845 26.1 21.0845 26.1 21.0846 26.1C21.0846 26.1 21.0846 26.1 21.0846 26.1C21.0847 26.1 21.0847 26.1 21.0847 26.1C21.0847 26.1 21.0848 26.1 21.0848 26.1C21.0848 26.1 21.0849 26.1 21.0849 26.1C21.0849 26.1 21.0849 26.1 21.085 26.1C21.085 26.1 21.085 26.1 21.085 26.1C21.0851 26.1 21.0851 26.1 21.0851 26.1C21.0852 26.1 21.0852 26.1 21.0852 26.1C21.0852 26.1 21.0853 26.1 21.0853 26.1C21.0853 26.1 21.0853 26.1 21.0854 26.1C21.0854 26.1 21.0854 26.1 21.0855 26.1C21.0855 26.1 21.0855 26.1 21.0855 26.1C21.0856 26.1 21.0856 26.1 21.0856 26.1C21.0857 26.1 21.0857 26.1 21.0857 26.1C21.0857 26.1 21.0858 26.1 21.0858 26.1C21.0858 26.1 21.0859 26.1 21.0859 26.1C21.0859 26.1 21.0859 26.1 21.086 26.1C21.086 26.1 21.086 26.1 21.0861 26.1C21.0861 26.1 21.0861 26.1 21.0861 26.1C21.0862 26.1 21.0862 26.1 21.0862 26.1C21.0863 26.1 21.0863 26.1 21.0863 26.1C21.0863 26.1 21.0864 26.1 21.0864 26.1C21.0864 26.1 21.0865 26.1 21.0865 26.1C21.0865 26.1 21.0866 26.1 21.0866 26.1C21.0866 26.1 21.0866 26.1 21.0867 26.1C21.0867 26.1 21.0867 26.1 21.0868 26.1C21.0868 26.1 21.0868 26.1 21.0868 26.1C21.0869 26.1 21.0869 26.1 21.0869 26.1C21.087 26.1 21.087 26.1 21.087 26.1C21.0871 26.1 21.0871 26.1 21.0871 26.1C21.0871 26.1 21.0872 26.1 21.0872 26.1C21.0872 26.1 21.0873 26.1 21.0873 26.1C21.0873 26.1 21.0874 26.1 21.0874 26.1C21.0874 26.1 21.0875 26.1 21.0875 26.1C21.0875 26.1 21.0875 26.1 21.0876 26.1C21.0876 26.1 21.0876 26.1 21.0877 26.1C21.0877 26.1 21.0877 26.1 21.0878 26.1C21.0878 26.1 21.0878 26.1 21.0879 26.1C21.0879 26.1 21.0879 26.1 21.088 26.1C21.088 26.1 21.088 26.1 21.088 26.1C21.0881 26.1 21.0881 26.1 21.0881 26.1C21.0882 26.1 21.0882 26.1 21.0882 26.1C21.0883 26.1 21.0883 26.1 21.0883 26.1C21.0884 26.1 21.0884 26.1 21.0884 26.1C21.0885 26.1 21.0885 26.1 21.0885 26.1C21.0886 26.1 21.0886 26.1 21.0886 26.1C21.0887 26.1 21.0887 26.1 21.0887 26.1C21.0888 26.1 21.0888 26.1 21.0888 26.1C21.0888 26.1 21.0889 26.1 21.0889 26.1C21.0889 26.1 21.089 26.1 21.089 26.1C21.089 26.1 21.0891 26.1 21.0891 26.1C21.0891 26.1 21.0892 26.1 21.0892 26.1C21.0892 26.1 21.0893 26.1 21.0893 26.1C21.0893 26.1 21.0894 26.1 21.0894 26.1C21.0894 26.1 21.0895 26.1 21.0895 26.1C21.0895 26.1 21.0896 26.1 21.0896 26.1C21.0896 26.1 21.0897 26.1 21.0897 26.1C21.0897 26.1 21.0898 26.1 21.0898 26.1C21.0898 26.1 21.0899 26.1 21.0899 26.1C21.09 26.1 21.09 26.1 21.09 26.1V20.1C21.09 20.1 21.09 20.1 21.0899 20.1C21.0899 20.1 21.0898 20.1 21.0898 20.1C21.0898 20.1 21.0897 20.1 21.0897 20.1C21.0897 20.1 21.0896 20.1 21.0896 20.1C21.0896 20.1 21.0895 20.1 21.0895 20.1C21.0895 20.1 21.0894 20.1 21.0894 20.1C21.0894 20.1 21.0893 20.1 21.0893 20.1C21.0893 20.1 21.0892 20.1 21.0892 20.1C21.0892 20.1 21.0891 20.1 21.0891 20.1C21.0891 20.1 21.089 20.1 21.089 20.1C21.089 20.1 21.0889 20.1 21.0889 20.1C21.0889 20.1 21.0888 20.1 21.0888 20.1C21.0888 20.1 21.0888 20.1 21.0887 20.1C21.0887 20.1 21.0887 20.1 21.0886 20.1C21.0886 20.1 21.0886 20.1 21.0885 20.1C21.0885 20.1 21.0885 20.1 21.0884 20.1C21.0884 20.1 21.0884 20.1 21.0883 20.1C21.0883 20.1 21.0883 20.1 21.0882 20.1C21.0882 20.1 21.0882 20.1 21.0881 20.1C21.0881 20.1 21.0881 20.1 21.088 20.1C21.088 20.1 21.088 20.1 21.088 20.1C21.0879 20.1 21.0879 20.1 21.0879 20.1C21.0878 20.1 21.0878 20.1 21.0878 20.1C21.0877 20.1 21.0877 20.1 21.0877 20.1C21.0876 20.1 21.0876 20.1 21.0876 20.1C21.0875 20.1 21.0875 20.1 21.0875 20.1C21.0875 20.1 21.0874 20.1 21.0874 20.1C21.0874 20.1 21.0873 20.1 21.0873 20.1C21.0873 20.1 21.0872 20.1 21.0872 20.1C21.0872 20.1 21.0871 20.1 21.0871 20.1C21.0871 20.1 21.0871 20.1 21.087 20.1C21.087 20.1 21.087 20.1 21.0869 20.1C21.0869 20.1 21.0869 20.1 21.0868 20.1C21.0868 20.1 21.0868 20.1 21.0868 20.1C21.0867 20.1 21.0867 20.1 21.0867 20.1C21.0866 20.1 21.0866 20.1 21.0866 20.1C21.0866 20.1 21.0865 20.1 21.0865 20.1C21.0865 20.1 21.0864 20.1 21.0864 20.1C21.0864 20.1 21.0863 20.1 21.0863 20.1C21.0863 20.1 21.0863 20.1 21.0862 20.1C21.0862 20.1 21.0862 20.1 21.0861 20.1C21.0861 20.1 21.0861 20.1 21.0861 20.1C21.086 20.1 21.086 20.1 21.086 20.1C21.0859 20.1 21.0859 20.1 21.0859 20.1C21.0859 20.1 21.0858 20.1 21.0858 20.1C21.0858 20.1 21.0857 20.1 21.0857 20.1C21.0857 20.1 21.0857 20.1 21.0856 20.1C21.0856 20.1 21.0856 20.1 21.0855 20.1C21.0855 20.1 21.0855 20.1 21.0855 20.1C21.0854 20.1 21.0854 20.1 21.0854 20.1C21.0853 20.1 21.0853 20.1 21.0853 20.1C21.0853 20.1 21.0852 20.1 21.0852 20.1C21.0852 20.1 21.0852 20.1 21.0851 20.1C21.0851 20.1 21.0851 20.1 21.085 20.1C21.085 20.1 21.085 20.1 21.085 20.1C21.0849 20.1 21.0849 20.1 21.0849 20.1C21.0849 20.1 21.0848 20.1 21.0848 20.1C21.0848 20.1 21.0847 20.1 21.0847 20.1C21.0847 20.1 21.0847 20.1 21.0846 20.1C21.0846 20.1 21.0846 20.1 21.0846 20.1C21.0845 20.1 21.0845 20.1 21.0845 20.1C21.0845 20.1 21.0844 20.1 21.0844 20.1C21.0844 20.1 21.0843 20.1 21.0843 20.1C21.0843 20.1 21.0843 20.1 21.0842 20.1C21.0842 20.1 21.0842 20.1 21.0842 20.1C21.0841 20.1 21.0841 20.1 21.0841 20.1C21.0841 20.1 21.084 20.1 21.084 20.1C21.084 20.1 21.084 20.1 21.0839 20.1C21.0839 20.1 21.0839 20.1 21.0839 20.1C21.0838 20.1 21.0838 20.1 21.0838 20.1C21.0838 20.1 21.0837 20.1 21.0837 20.1C21.0837 20.1 21.0837 20.1 21.0836 20.1C21.0836 20.1 21.0836 20.1 21.0835 20.1C21.0835 20.1 21.0835 20.1 21.0835 20.1C21.0834 20.1 21.0834 20.1 21.0834 20.1C21.0834 20.1 21.0833 20.1 21.0833 20.1C21.0833 20.1 21.0833 20.1 21.0833 20.1C21.0832 20.1 21.0832 20.1 21.0832 20.1C21.0832 20.1 21.0831 20.1 21.0831 20.1C21.0831 20.1 21.0831 20.1 21.083 20.1C21.083 20.1 21.083 20.1 21.083 20.1C21.0829 20.1 21.0829 20.1 21.0829 20.1C21.0829 20.1 21.0828 20.1 21.0828 20.1C21.0828 20.1 21.0828 20.1 21.0827 20.1C21.0827 20.1 21.0827 20.1 21.0827 20.1C21.0826 20.1 21.0826 20.1 21.0826 20.1C21.0826 20.1 21.0826 20.1 21.0825 20.1C21.0825 20.1 21.0825 20.1 21.0825 20.1C21.0824 20.1 21.0824 20.1 21.0824 20.1C21.0824 20.1 21.0823 20.1 21.0823 20.1C21.0823 20.1 21.0823 20.1 21.0822 20.1C21.0822 20.1 21.0822 20.1 21.0822 20.1C21.0822 20.1 21.0821 20.1 21.0821 20.1C21.0821 20.1 21.0821 20.1 21.082 20.1C21.082 20.1 21.082 20.1 21.082 20.1C21.082 20.1 21.0819 20.1 21.0819 20.1C21.0819 20.1 21.0819 20.1 21.0818 20.1C21.0818 20.1 21.0818 20.1 21.0818 20.1C21.0817 20.1 21.0817 20.1 21.0817 20.1C21.0817 20.1 21.0817 20.1 21.0816 20.1C21.0816 20.1 21.0816 20.1 21.0816 20.1C21.0815 20.1 21.0815 20.1 21.0815 20.1C21.0815 20.1 21.0815 20.1 21.0814 20.1C21.0814 20.1 21.0814 20.1 21.0814 20.1C21.0814 20.1 21.0813 20.1 21.0813 20.1C21.0813 20.1 21.0813 20.1 21.0812 20.1C21.0812 20.1 21.0812 20.1 21.0812 20.1C21.0812 20.1 21.0811 20.1 21.0811 20.1C21.0811 20.1 21.0811 20.1 21.0811 20.1C21.081 20.1 21.081 20.1 21.081 20.1C21.081 20.1 21.0809 20.1 21.0809 20.1C21.0809 20.1 21.0809 20.1 21.0809 20.1C21.0808 20.1 21.0808 20.1 21.0808 20.1C21.0808 20.1 21.0808 20.1 21.0807 20.1C21.0807 20.1 21.0807 20.1 21.0807 20.1C21.0807 20.1 21.0806 20.1 21.0806 20.1C21.0806 20.1 21.0806 20.1 21.0806 20.1C21.0805 20.1 21.0805 20.1 21.0805 20.1C21.0805 20.1 21.0805 20.1 21.0804 20.1C21.0804 20.1 21.0804 20.1 21.0804 20.1C21.0804 20.1 21.0803 20.1 21.0803 20.1C21.0803 20.1 21.0803 20.1 21.0803 20.1C21.0802 20.1 21.0802 20.1 21.0802 20.1C21.0802 20.1 21.0802 20.1 21.0801 20.1C21.0801 20.1 21.0801 20.1 21.0801 20.1C21.0801 20.1 21.08 20.1 21.08 20.1C21.08 20.1 21.08 20.1 21.08 20.1C21.0799 20.1 21.0799 20.1 21.0799 20.1C21.0799 20.1 21.0799 20.1 21.0798 20.1C21.0798 20.1 21.0798 20.1 21.0798 20.1C21.0798 20.1 21.0797 20.1 21.0797 20.1C21.0797 20.1 21.0797 20.1 21.0797 20.1C21.0797 20.1 21.0796 20.1 21.0796 20.1C21.0796 20.1 21.0796 20.1 21.0796 20.1C21.0795 20.1 21.0795 20.1 21.0795 20.1C21.0795 20.1 21.0795 20.1 21.0794 20.1C21.0794 20.1 21.0794 20.1 21.0794 20.1C21.0794 20.1 21.0794 20.1 21.0793 20.1C21.0793 20.1 21.0793 20.1 21.0793 20.1C21.0793 20.1 21.0792 20.1 21.0792 20.1C21.0792 20.1 21.0792 20.1 21.0792 20.1C21.0792 20.1 21.0791 20.1 21.0791 20.1C21.0791 20.1 21.0791 20.1 21.0791 20.1C21.0791 20.1 21.079 20.1 21.079 20.1C21.079 20.1 21.079 20.1 21.079 20.1C21.0789 20.1 21.0789 20.1 21.0789 20.1C21.0789 20.1 21.0789 20.1 21.0789 20.1C21.0788 20.1 21.0788 20.1 21.0788 20.1C21.0788 20.1 21.0788 20.1 21.0788 20.1C21.0787 20.1 21.0787 20.1 21.0787 20.1C21.0787 20.1 21.0787 20.1 21.0787 20.1C21.0786 20.1 21.0786 20.1 21.0786 20.1C21.0786 20.1 21.0786 20.1 21.0786 20.1C21.0785 20.1 21.0785 20.1 21.0785 20.1C21.0785 20.1 21.0785 20.1 21.0785 20.1C21.0784 20.1 21.0784 20.1 21.0784 20.1C21.0784 20.1 21.0784 20.1 21.0784 20.1C21.0783 20.1 21.0783 20.1 21.0783 20.1C21.0783 20.1 21.0783 20.1 21.0783 20.1C21.0782 20.1 21.0782 20.1 21.0782 20.1C21.0782 20.1 21.0782 20.1 21.0782 20.1C21.0781 20.1 21.0781 20.1 21.0781 20.1C21.0781 20.1 21.0781 20.1 21.0781 20.1C21.078 20.1 21.078 20.1 21.078 20.1C21.078 20.1 21.078 20.1 21.078 20.1C21.078 20.1 21.0779 20.1 21.0779 20.1C21.0779 20.1 21.0779 20.1 21.0779 20.1C21.0779 20.1 21.0778 20.1 21.0778 20.1C21.0778 20.1 21.0778 20.1 21.0778 20.1C21.0778 20.1 21.0777 20.1 21.0777 20.1C21.0777 20.1 21.0777 20.1 21.0777 20.1C21.0777 20.1 21.0777 20.1 21.0776 20.1C21.0776 20.1 21.0776 20.1 21.0776 20.1C21.0776 20.1 21.0776 20.1 21.0776 20.1C21.0775 20.1 21.0775 20.1 21.0775 20.1C21.0775 20.1 21.0775 20.1 21.0775 20.1C21.0775 20.1 21.0774 20.1 21.0774 20.1C21.0774 20.1 21.0774 20.1 21.0774 20.1C21.0774 20.1 21.0773 20.1 21.0773 20.1C21.0773 20.1 21.0773 20.1 21.0773 20.1C21.0773 20.1 21.0773 20.1 21.0772 20.1C21.0772 20.1 21.0772 20.1 21.0772 20.1C21.0772 20.1 21.0772 20.1 21.0772 20.1C21.0771 20.1 21.0771 20.1 21.0771 20.1C21.0771 20.1 21.0771 20.1 21.0771 20.1C21.0771 20.1 21.0771 20.1 21.077 20.1C21.077 20.1 21.077 20.1 21.077 20.1C21.077 20.1 21.077 20.1 21.077 20.1C21.0769 20.1 21.0769 20.1 21.0769 20.1C21.0769 20.1 21.0769 20.1 21.0769 20.1C21.0769 20.1 21.0768 20.1 21.0768 20.1C21.0768 20.1 21.0768 20.1 21.0768 20.1C21.0768 20.1 21.0768 20.1 21.0768 20.1C21.0767 20.1 21.0767 20.1 21.0767 20.1C21.0767 20.1 21.0767 20.1 21.0767 20.1C21.0767 20.1 21.0766 20.1 21.0766 20.1C21.0766 20.1 21.0766 20.1 21.0766 20.1C21.0766 20.1 21.0766 20.1 21.0766 20.1C21.0765 20.1 21.0765 20.1 21.0765 20.1C21.0765 20.1 21.0765 20.1 21.0765 20.1C21.0765 20.1 21.0765 20.1 21.0764 20.1C21.0764 20.1 21.0764 20.1 21.0764 20.1C21.0764 20.1 21.0764 20.1 21.0764 20.1C21.0764 20.1 21.0763 20.1 21.0763 20.1C21.0763 20.1 21.0763 20.1 21.0763 20.1C21.0763 20.1 21.0763 20.1 21.0763 20.1C21.0762 20.1 21.0762 20.1 21.0762 20.1C21.0762 20.1 21.0762 20.1 21.0762 20.1C21.0762 20.1 21.0762 20.1 21.0761 20.1C21.0761 20.1 21.0761 20.1 21.0761 20.1C21.0761 20.1 21.0761 20.1 21.0761 20.1C21.0761 20.1 21.0761 20.1 21.076 20.1C21.076 20.1 21.076 20.1 21.076 20.1C21.076 20.1 21.076 20.1 21.076 20.1C21.076 20.1 21.0759 20.1 21.0759 20.1C21.0759 20.1 21.0759 20.1 21.0759 20.1C21.0759 20.1 21.0759 20.1 21.0759 20.1C21.0759 20.1 21.0758 20.1 21.0758 20.1C21.0758 20.1 21.0758 20.1 21.0758 20.1C21.0758 20.1 21.0758 20.1 21.0758 20.1C21.0758 20.1 21.0757 20.1 21.0757 20.1C21.0757 20.1 21.0757 20.1 21.0757 20.1C21.0757 20.1 21.0757 20.1 21.0757 20.1C21.0757 20.1 21.0756 20.1 21.0756 20.1C21.0756 20.1 21.0756 20.1 21.0756 20.1C21.0756 20.1 21.0756 20.1 21.0756 20.1C21.0756 20.1 21.0755 20.1 21.0755 20.1C21.0755 20.1 21.0755 20.1 21.0755 20.1C21.0755 20.1 21.0755 20.1 21.0755 20.1C21.0755 20.1 21.0755 20.1 21.0754 20.1C21.0754 20.1 21.0754 20.1 21.0754 20.1C21.0754 20.1 21.0754 20.1 21.0754 20.1C21.0754 20.1 21.0754 20.1 21.0754 20.1C21.0753 20.1 21.0753 20.1 21.0753 20.1C21.0753 20.1 21.0753 20.1 21.0753 20.1C21.0753 20.1 21.0753 20.1 21.0753 20.1C21.0753 20.1 21.0752 20.1 21.0752 20.1C21.0752 20.1 21.0752 20.1 21.0752 20.1C21.0752 20.1 21.0752 20.1 21.0752 20.1C21.0752 20.1 21.0752 20.1 21.0751 20.1C21.0751 20.1 21.0751 20.1 21.0751 20.1C21.0751 20.1 21.0751 20.1 21.0751 20.1C21.0751 20.1 21.0751 20.1 21.0751 20.1C21.075 20.1 21.075 20.1 21.075 20.1C21.075 20.1 21.075 20.1 21.075 20.1C21.075 20.1 21.075 20.1 21.075 20.1C21.075 20.1 21.075 20.1 21.0749 20.1C21.0749 20.1 21.0749 20.1 21.0749 20.1C21.0749 20.1 21.0749 20.1 21.0749 20.1C21.0749 20.1 21.0749 20.1 21.0749 20.1C21.0749 20.1 21.0748 20.1 21.0748 20.1C21.0748 20.1 21.0748 20.1 21.0748 20.1C21.0748 20.1 21.0748 20.1 21.0748 20.1C21.0748 20.1 21.0748 20.1 21.0748 20.1C21.0747 20.1 21.0747 20.1 21.0747 20.1C21.0747 20.1 21.0747 20.1 21.0747 20.1C21.0747 20.1 21.0747 20.1 21.0747 20.1C21.0747 20.1 21.0747 20.1 21.0747 20.1C21.0746 20.1 21.0746 20.1 21.0746 20.1C21.0746 20.1 21.0746 20.1 21.0746 20.1C21.0746 20.1 21.0746 20.1 21.0746 20.1C21.0746 20.1 21.0746 20.1 21.0746 20.1C21.0745 20.1 21.0745 20.1 21.0745 20.1C21.0745 20.1 21.0745 20.1 21.0745 20.1C21.0745 20.1 21.0745 20.1 21.0745 20.1C21.0745 20.1 21.0745 20.1 21.0745 20.1C21.0745 20.1 21.0744 20.1 21.0744 20.1C21.0744 20.1 21.0744 20.1 21.0744 20.1C21.0744 20.1 21.0744 20.1 21.0744 20.1C21.0744 20.1 21.0744 20.1 21.0744 20.1C21.0744 20.1 21.0744 20.1 21.0743 20.1C21.0743 20.1 21.0743 20.1 21.0743 20.1C21.0743 20.1 21.0743 20.1 21.0743 20.1C21.0743 20.1 21.0743 20.1 21.0743 20.1C21.0743 20.1 21.0743 20.1 21.0743 20.1C21.0742 20.1 21.0742 20.1 21.0742 20.1C21.0742 20.1 21.0742 20.1 21.0742 20.1C21.0742 20.1 21.0742 20.1 21.0742 20.1C21.0742 20.1 21.0742 20.1 21.0742 20.1C21.0742 20.1 21.0742 20.1 21.0741 20.1C21.0741 20.1 21.0741 20.1 21.0741 20.1C21.0741 20.1 21.0741 20.1 21.0741 20.1C21.0741 20.1 21.0741 20.1 21.0741 20.1C21.0741 20.1 21.0741 20.1 21.0741 20.1C21.0741 20.1 21.0741 20.1 21.074 20.1C21.074 20.1 21.074 20.1 21.074 20.1C21.074 20.1 21.074 20.1 21.074 20.1C21.074 20.1 21.074 20.1 21.074 20.1C21.074 20.1 21.074 20.1 21.074 20.1C21.074 20.1 21.074 20.1 21.0739 20.1C21.0739 20.1 21.0739 20.1 21.0739 20.1C21.0739 20.1 21.0739 20.1 21.0739 20.1C21.0739 20.1 21.0739 20.1 21.0739 20.1C21.0739 20.1 21.0739 20.1 21.0739 20.1C21.0739 20.1 21.0739 20.1 21.0739 20.1C21.0738 20.1 21.0738 20.1 21.0738 20.1C21.0738 20.1 21.0738 20.1 21.0738 20.1C21.0738 20.1 21.0738 20.1 21.0738 20.1C21.0738 20.1 21.0738 20.1 21.0738 20.1C21.0738 20.1 21.0738 20.1 21.0738 20.1C21.0738 20.1 21.0738 20.1 21.0737 20.1C21.0737 20.1 21.0737 20.1 21.0737 20.1C21.0737 20.1 21.0737 20.1 21.0737 20.1C21.0737 20.1 21.0737 20.1 21.0737 20.1C21.0737 20.1 21.0737 20.1 21.0737 20.1C21.0737 20.1 21.0737 20.1 21.0737 20.1C21.0737 20.1 21.0736 20.1 21.0736 20.1C21.0736 20.1 21.0736 20.1 21.0736 20.1C21.0736 20.1 21.0736 20.1 21.0736 20.1C21.0736 20.1 21.0736 20.1 21.0736 20.1C21.0736 20.1 21.0736 20.1 21.0736 20.1C21.0736 20.1 21.0736 20.1 21.0736 20.1C21.0736 20.1 21.0736 20.1 21.0735 20.1C21.0735 20.1 21.0735 20.1 21.0735 20.1C21.0735 20.1 21.0735 20.1 21.0735 20.1C21.0735 20.1 21.0735 20.1 21.0735 20.1C21.0735 20.1 21.0735 20.1 21.0735 20.1C21.0735 20.1 21.0735 20.1 21.0735 20.1C21.0735 20.1 21.0735 20.1 21.0735 20.1C21.0735 20.1 21.0734 20.1 21.0734 20.1C21.0734 20.1 21.0734 20.1 21.0734 20.1C21.0734 20.1 21.0734 20.1 21.0734 20.1C21.0734 20.1 21.0734 20.1 21.0734 20.1C21.0734 20.1 21.0734 20.1 21.0734 20.1C21.0734 20.1 21.0734 20.1 21.0734 20.1C21.0734 20.1 21.0734 20.1 21.0734 20.1C21.0734 20.1 21.0733 20.1 21.0733 20.1C21.0733 20.1 21.0733 20.1 21.0733 20.1C21.0733 20.1 21.0733 20.1 21.0733 20.1C21.0733 20.1 21.0733 20.1 21.0733 20.1C21.0733 20.1 21.0733 20.1 21.0733 20.1C21.0733 20.1 21.0733 20.1 21.0733 20.1C21.0733 20.1 21.0733 20.1 21.0733 20.1C21.0733 20.1 21.0733 20.1 21.0733 20.1C21.0733 20.1 21.0732 20.1 21.0732 20.1C21.0732 20.1 21.0732 20.1 21.0732 20.1C21.0732 20.1 21.0732 20.1 21.0732 20.1C21.0732 20.1 21.0732 20.1 21.0732 20.1C21.0732 20.1 21.0732 20.1 21.0732 20.1C21.0732 20.1 21.0732 20.1 21.0732 20.1C21.0732 20.1 21.0732 20.1 21.0732 20.1C21.0732 20.1 21.0732 20.1 21.0732 20.1C21.0732 20.1 21.0732 20.1 21.0731 20.1C21.0731 20.1 21.0731 20.1 21.0731 20.1C21.0731 20.1 21.0731 20.1 21.0731 20.1C21.0731 20.1 21.0731 20.1 21.0731 20.1C21.0731 20.1 21.0731 20.1 21.0731 20.1C21.0731 20.1 21.0731 20.1 21.0731 20.1C21.0731 20.1 21.0731 20.1 21.0731 20.1C21.0731 20.1 21.0731 20.1 21.0731 20.1C21.0731 20.1 21.0731 20.1 21.0731 20.1C21.0731 20.1 21.0731 20.1 21.0731 20.1C21.0731 20.1 21.073 20.1 21.073 20.1C21.073 20.1 21.073 20.1 21.073 20.1C21.073 20.1 21.073 20.1 21.073 20.1C21.073 20.1 21.073 20.1 21.073 20.1C21.073 20.1 21.073 20.1 21.073 20.1C21.073 20.1 21.073 20.1 21.073 20.1C21.073 20.1 21.073 20.1 21.073 20.1C21.073 20.1 21.073 20.1 21.073 20.1C21.073 20.1 21.073 20.1 21.073 20.1C21.073 20.1 21.073 20.1 21.073 20.1C21.073 20.1 21.073 20.1 21.073 20.1C21.0729 20.1 21.0729 20.1 21.0729 20.1C21.0729 20.1 21.0729 20.1 21.0729 20.1C21.0729 20.1 21.0729 20.1 21.0729 20.1C21.0729 20.1 21.0729 20.1 21.0729 20.1C21.0729 20.1 21.0729 20.1 21.0729 20.1C21.0729 20.1 21.0729 20.1 21.0729 20.1C21.0729 20.1 21.0729 20.1 21.0729 20.1C21.0729 20.1 21.0729 20.1 21.0729 20.1C21.0729 20.1 21.0729 20.1 21.0729 20.1C21.0729 20.1 21.0729 20.1 21.0729 20.1C21.0729 20.1 21.0729 20.1 21.0729 20.1C21.0729 20.1 21.0729 20.1 21.0729 20.1C21.0729 20.1 21.0728 20.1 21.0728 20.1C21.0728 20.1 21.0728 20.1 21.0728 20.1C21.0728 20.1 21.0728 20.1 21.0728 20.1C21.0728 20.1 21.0728 20.1 21.0728 20.1C21.0728 20.1 21.0728 20.1 21.0728 20.1C21.0728 20.1 21.0728 20.1 21.0728 20.1C21.0728 20.1 21.0728 20.1 21.0728 20.1C21.0728 20.1 21.0728 20.1 21.0728 20.1C21.0728 20.1 21.0728 20.1 21.0728 20.1C21.0728 20.1 21.0728 20.1 21.0728 20.1C21.0728 20.1 21.0728 20.1 21.0728 20.1C21.0728 20.1 21.0728 20.1 21.0728 20.1C21.0728 20.1 21.0728 20.1 21.0728 20.1C21.0728 20.1 21.0728 20.1 21.0728 20.1C21.0728 20.1 21.0728 20.1 21.0728 20.1C21.0728 20.1 21.0728 20.1 21.0728 20.1C21.0727 20.1 21.0727 20.1 21.0727 20.1C21.0727 20.1 21.0727 20.1 21.0727 20.1C21.0727 20.1 21.0727 20.1 21.0727 20.1C21.0727 20.1 21.0727 20.1 21.0727 20.1C21.0727 20.1 21.0727 20.1 21.0727 20.1C21.0727 20.1 21.0727 20.1 21.0727 20.1C21.0727 20.1 21.0727 20.1 21.0727 20.1C21.0727 20.1 21.0727 20.1 21.0727 20.1C21.0727 20.1 21.0727 20.1 21.0727 20.1C21.0727 20.1 21.0727 20.1 21.0727 20.1C21.0727 20.1 21.0727 20.1 21.0727 20.1C21.0727 20.1 21.0727 20.1 21.0727 20.1C21.0727 20.1 21.0727 20.1 21.0727 20.1C21.0727 20.1 21.0727 20.1 21.0727 20.1C21.0727 20.1 21.0727 20.1 21.0727 20.1C21.0727 20.1 21.0727 20.1 21.0727 20.1C21.0727 20.1 21.0727 20.1 21.0727 20.1C21.0727 20.1 21.0727 20.1 21.0727 20.1C21.0727 20.1 21.0727 20.1 21.0727 20.1C21.0727 20.1 21.0727 20.1 21.0727 20.1C21.0727 20.1 21.0727 20.1 21.0727 20.1C21.0726 20.1 21.0726 20.1 21.0726 20.1C21.0726 20.1 21.0726 20.1 21.0726 20.1C21.0726 20.1 21.0726 20.1 21.0726 20.1C21.0726 20.1 21.0726 20.1 21.0726 20.1C21.0726 20.1 21.0726 20.1 21.0726 20.1C21.0726 20.1 21.0726 20.1 21.0726 20.1C21.0726 20.1 21.0726 20.1 21.0726 20.1C21.0726 20.1 21.0726 20.1 21.0726 20.1C21.0726 20.1 21.0726 20.1 21.0726 20.1C21.0726 20.1 21.0726 20.1 21.0726 20.1C21.0726 20.1 21.0726 20.1 21.0726 20.1C21.0726 20.1 21.0726 20.1 21.0726 20.1C21.0726 20.1 21.0726 20.1 21.0726 20.1C21.0726 20.1 21.0726 20.1 21.0726 20.1C21.0726 20.1 21.0726 20.1 21.0726 20.1C21.0726 20.1 21.0726 20.1 21.0726 20.1C21.0726 20.1 21.0726 20.1 21.0726 20.1C21.0726 20.1 21.0726 20.1 21.0726 20.1C21.0726 20.1 21.0726 20.1 21.0726 20.1C21.0726 20.1 21.0726 20.1 21.0726 20.1C21.0726 20.1 21.0726 20.1 21.0726 20.1C21.0726 20.1 21.0726 20.1 21.0726 20.1C21.0726 20.1 21.0726 20.1 21.0726 20.1C21.0726 20.1 21.0726 20.1 21.0726 20.1C21.0726 20.1 21.0726 20.1 21.0726 20.1C21.0726 20.1 21.0726 20.1 21.0726 20.1C21.0726 20.1 21.0726 20.1 21.0726 20.1C21.0726 20.1 21.0726 20.1 21.0726 20.1C21.0726 20.1 21.0726 20.1 21.0726 20.1C21.0726 20.1 21.0726 20.1 21.0726 20.1C21.0726 20.1 21.0726 20.1 21.0726 20.1C21.0726 20.1 21.0726 20.1 21.0726 20.1C21.0726 20.1 21.0726 20.1 21.0726 20.1C21.0726 20.1 21.0726 20.1 21.0726 20.1C21.0726 20.1 21.0726 20.1 21.0726 20.1C21.0726 20.1 21.0726 20.1 21.0726 20.1C21.0726 20.1 21.0726 20.1 21.0726 20.1C21.0726 20.1 21.0726 20.1 21.0726 20.1C21.0726 20.1 21.0725 20.1 21.0725 20.1C21.0725 20.1 21.0725 20.1 21.0725 20.1C21.0725 20.1 21.0725 20.1 21.0725 20.1C21.0725 20.1 21.0725 20.1 21.0725 20.1C21.0725 20.1 21.0725 20.1 21.0725 20.1C21.0725 20.1 21.0725 20.1 21.0725 20.1C21.0725 20.1 21.0725 20.1 21.0725 20.1C21.0725 20.1 21.0725 20.1 21.0725 20.1C21.0725 20.1 21.0725 20.1 21.0725 20.1C21.0725 20.1 21.0725 20.1 21.0725 20.1C21.0725 20.1 21.0725 20.1 21.0725 20.1C21.0725 20.1 21.0725 20.1 21.0725 20.1C21.0725 20.1 21.0725 20.1 21.0725 20.1C21.0725 20.1 21.0725 20.1 21.0725 20.1C21.0725 20.1 21.0725 20.1 21.0725 20.1C21.0725 20.1 21.0725 20.1 21.0725 20.1C21.0725 20.1 21.0725 20.1 21.0725 20.1C21.0725 20.1 21.0725 20.1 21.0725 20.1C21.0725 20.1 21.0725 20.1 21.0725 20.1C21.0725 20.1 21.0725 20.1 21.0725 20.1C21.0725 20.1 21.0725 20.1 21.0725 20.1C21.0725 20.1 21.0725 20.1 21.0725 20.1C21.0725 20.1 21.0725 20.1 21.0725 20.1C21.0725 20.1 21.0725 20.1 21.0725 20.1C21.0725 20.1 21.0725 20.1 21.0725 20.1C21.0725 20.1 21.0725 20.1 21.0725 20.1C21.0725 20.1 21.0725 20.1 21.0725 20.1C21.0725 20.1 21.0725 20.1 21.0725 20.1C21.0725 20.1 21.0725 20.1 21.0725 20.1C21.0725 20.1 21.0725 20.1 21.0725 20.1C21.0725 20.1 21.0725 20.1 21.0725 20.1C21.0725 20.1 21.0725 20.1 21.0725 20.1C21.0725 20.1 21.0725 20.1 21.0725 20.1C21.0725 20.1 21.0725 20.1 21.0725 20.1C21.0725 20.1 21.0725 20.1 21.0725 20.1C21.0725 20.1 21.0725 20.1 21.0725 20.1C21.0725 20.1 21.0725 20.1 21.0725 20.1C21.0725 20.1 21.0725 20.1 21.0725 20.1H21.0725C21.0725 20.1 21.0725 20.1 21.0725 20.1C21.0725 20.1 21.0725 20.1 21.0725 20.1C21.0725 20.1 21.0725 20.1 21.0725 20.1H21.0725C21.0725 20.1 21.0725 20.1 21.0725 20.1C21.0725 20.1 21.0725 20.1 21.0725 20.1C21.0725 20.1 21.0725 20.1 21.0725 20.1H21.0725C21.0725 20.1 21.0725 20.1 21.0725 20.1H21.0725C21.0725 20.1 21.0725 20.1 21.0725 20.1C21.0725 20.1 21.0725 20.1 21.0725 20.1C21.0725 23.1 21.0725 26.1 21.0725 23.1ZM21.06 26.0998L29.81 26.1873L29.87 20.1876L21.12 20.1001L21.06 26.0998ZM29.84 26.1875C28.8883 26.1875 28.1129 25.411 28.1359 24.4461L34.1342 24.5889C34.1921 22.154 32.2267 20.1875 29.84 20.1875V26.1875ZM28.1359 24.4443C28.1571 23.5763 28.8697 22.8125 29.8225 22.8125V28.8125C32.2104 28.8125 34.078 26.8937 34.1341 24.5906L28.1359 24.4443Z" fill="white" mask="url(#path-7-inside-4_3_44)"/>
<mask id="path-9-inside-5_3_44" fill="white">
<path d="M26.3225 18.8125H21.0725C20.355 18.8125 19.76 18.2175 19.76 17.5C19.76 16.7825 20.355 16.1875 21.0725 16.1875H26.3225C27.04 16.1875 27.635 16.7825 27.635 17.5C27.635 18.2175 27.04 18.8125 26.3225 18.8125Z"/>
</mask>
<path d="M26.3225 15.8125H21.0725V21.8125H26.3225V15.8125ZM21.0725 15.8125C22.0119 15.8125 22.76 16.5606 22.76 17.5H16.76C16.76 19.8744 18.6982 21.8125 21.0725 21.8125V15.8125ZM22.76 17.5C22.76 18.4394 22.0119 19.1875 21.0725 19.1875V13.1875C18.6982 13.1875 16.76 15.1256 16.76 17.5H22.76ZM21.0725 19.1875H26.3225V13.1875H21.0725V19.1875ZM26.3225 19.1875C25.3832 19.1875 24.635 18.4394 24.635 17.5H30.635C30.635 15.1256 28.6969 13.1875 26.3225 13.1875V19.1875ZM24.635 17.5C24.635 16.5606 25.3832 15.8125 26.3225 15.8125V21.8125C28.6969 21.8125 30.635 19.8744 30.635 17.5H24.635Z" fill="white" mask="url(#path-9-inside-5_3_44)"/>
<mask id="path-11-inside-6_3_44" fill="white">
<path d="M10.6075 39.76C9.01499 39.76 7.50999 38.78 6.47749 37.065L5.04249 34.685C4.51749 33.81 4.11499 32.375 4.11499 31.36V8.6625C4.11499 5.0925 7.01999 2.1875 10.59 2.1875C14.16 2.1875 17.065 5.0925 17.065 8.6625V31.3425C17.065 32.3575 16.6625 33.7925 16.1375 34.6675L14.7025 37.0475C13.705 38.78 12.2 39.76 10.6075 39.76ZM10.6075 4.8125C8.48999 4.8125 6.75749 6.545 6.75749 8.6625V31.3425C6.75749 31.885 7.01999 32.8475 7.29999 33.32L8.73499 35.7C9.27749 36.61 9.95999 37.1175 10.6075 37.1175C11.255 37.1175 11.9375 36.5925 12.48 35.7L13.915 33.32C14.195 32.8475 14.4575 31.885 14.4575 31.3425V8.6625C14.4575 6.545 12.725 4.8125 10.6075 4.8125Z"/>
</mask>
<path d="M6.47749 37.065L9.04765 35.5177L9.04663 35.516L6.47749 37.065ZM5.04249 34.685L2.47001 36.2285L2.47335 36.234L5.04249 34.685ZM16.1375 34.6675L18.7066 36.2165L18.71 36.211L16.1375 34.6675ZM14.7025 37.0475L12.1334 35.4985L12.1177 35.5244L12.1026 35.5506L14.7025 37.0475ZM7.29999 33.32L4.71912 34.8494L4.72495 34.8592L4.73085 34.869L7.29999 33.32ZM8.73499 35.7L11.3118 34.1638L11.308 34.1574L11.3041 34.151L8.73499 35.7ZM12.48 35.7L15.0436 37.2583L15.0491 37.249L12.48 35.7ZM13.915 33.32L16.4841 34.869L16.49 34.8592L16.4959 34.8494L13.915 33.32ZM10.6075 36.76C10.3422 36.76 9.69619 36.5949 9.04765 35.5177L3.90733 38.6123C5.32379 40.9651 7.68777 42.76 10.6075 42.76V36.76ZM9.04663 35.516L7.61163 33.136L2.47335 36.234L3.90835 38.614L9.04663 35.516ZM7.61497 33.1415C7.36488 32.7247 7.11499 31.822 7.11499 31.36H1.11499C1.11499 32.928 1.6701 34.8953 2.47001 36.2285L7.61497 33.1415ZM7.11499 31.36V8.6625H1.11499V31.36H7.11499ZM7.11499 8.6625C7.11499 6.74935 8.67684 5.1875 10.59 5.1875V-0.8125C5.36314 -0.8125 1.11499 3.43565 1.11499 8.6625H7.11499ZM10.59 5.1875C12.5031 5.1875 14.065 6.74935 14.065 8.6625H20.065C20.065 3.43564 15.8168 -0.8125 10.59 -0.8125V5.1875ZM14.065 8.6625V31.3425H20.065V8.6625H14.065ZM14.065 31.3425C14.065 31.8045 13.8151 32.7072 13.565 33.124L18.71 36.211C19.5099 34.8778 20.065 32.9105 20.065 31.3425H14.065ZM13.5684 33.1185L12.1334 35.4985L17.2716 38.5965L18.7066 36.2165L13.5684 33.1185ZM12.1026 35.5506C11.4983 36.6002 10.8694 36.76 10.6075 36.76V42.76C13.5305 42.76 15.9117 40.9598 17.3024 38.5444L12.1026 35.5506ZM10.6075 1.8125C6.83314 1.8125 3.75749 4.88815 3.75749 8.6625H9.75749C9.75749 8.20185 10.1468 7.8125 10.6075 7.8125V1.8125ZM3.75749 8.6625V31.3425H9.75749V8.6625H3.75749ZM3.75749 31.3425C3.75749 31.9937 3.89646 32.6612 4.03024 33.1498C4.16418 33.6389 4.38522 34.286 4.71912 34.8494L9.88086 31.7906C9.90532 31.8319 9.91532 31.854 9.91346 31.85C9.91236 31.8477 9.90556 31.8328 9.8945 31.8042C9.8716 31.7451 9.84369 31.6618 9.81724 31.5652C9.79078 31.4686 9.77243 31.3829 9.76206 31.3207C9.75706 31.2907 9.75535 31.2747 9.75513 31.2725C9.75474 31.2685 9.75749 31.2934 9.75749 31.3425H3.75749ZM4.73085 34.869L6.16585 37.249L11.3041 34.151L9.86913 31.771L4.73085 34.869ZM6.15815 37.2362C6.90407 38.4874 8.37836 40.1175 10.6075 40.1175V34.1175C11.0881 34.1175 11.3733 34.3059 11.4371 34.3539C11.4986 34.4003 11.4348 34.3701 11.3118 34.1638L6.15815 37.2362ZM10.6075 40.1175C12.8554 40.1175 14.3243 38.4415 15.0436 37.2582L9.91642 34.1418C9.78926 34.351 9.71839 34.3926 9.76745 34.3553C9.81419 34.3197 10.1033 34.1175 10.6075 34.1175V40.1175ZM15.0491 37.249L16.4841 34.869L11.3459 31.771L9.91085 34.151L15.0491 37.249ZM16.4959 34.8494C16.8298 34.286 17.0508 33.6389 17.1847 33.1498C17.3185 32.6612 17.4575 31.9937 17.4575 31.3425H11.4575C11.4575 31.2934 11.4602 31.2685 11.4598 31.2725C11.4596 31.2747 11.4579 31.2907 11.4529 31.3207C11.4426 31.3829 11.4242 31.4686 11.3977 31.5652C11.3713 31.6618 11.3434 31.7451 11.3205 31.8042C11.3094 31.8328 11.3026 31.8477 11.3015 31.85C11.2997 31.854 11.3097 31.8319 11.3341 31.7906L16.4959 34.8494ZM17.4575 31.3425V8.6625H11.4575V31.3425H17.4575ZM17.4575 8.6625C17.4575 4.88814 14.3818 1.8125 10.6075 1.8125V7.8125C11.0681 7.8125 11.4575 8.20185 11.4575 8.6625H17.4575Z" fill="white" mask="url(#path-11-inside-6_3_44)"/>
<mask id="path-13-inside-7_3_44" fill="white">
<path d="M15.77 13.5625H5.42749C4.70999 13.5625 4.11499 12.9675 4.11499 12.25C4.11499 11.5325 4.70999 10.9375 5.42749 10.9375H15.77C16.4875 10.9375 17.0825 11.5325 17.0825 12.25C17.0825 12.9675 16.4875 13.5625 15.77 13.5625Z"/>
</mask>
<path d="M15.77 10.5625H5.42749V16.5625H15.77V10.5625ZM5.42749 10.5625C6.36684 10.5625 7.11499 11.3106 7.11499 12.25H1.11499C1.11499 14.6244 3.05314 16.5625 5.42749 16.5625V10.5625ZM7.11499 12.25C7.11499 13.1894 6.36684 13.9375 5.42749 13.9375V7.9375C3.05314 7.9375 1.11499 9.87565 1.11499 12.25H7.11499ZM5.42749 13.9375H15.77V7.9375H5.42749V13.9375ZM15.77 13.9375C14.8306 13.9375 14.0825 13.1894 14.0825 12.25H20.0825C20.0825 9.87565 18.1443 7.9375 15.77 7.9375V13.9375ZM14.0825 12.25C14.0825 11.3106 14.8306 10.5625 15.77 10.5625V16.5625C18.1443 16.5625 20.0825 14.6244 20.0825 12.25H14.0825Z" fill="white" mask="url(#path-13-inside-7_3_44)"/>
</g>
<defs>
<filter id="filter0_d_3_44" x="-3" y="0" width="50" height="50" filterUnits="userSpaceOnUse" color-interpolation-filters="sRGB">
<feFlood flood-opacity="0" result="BackgroundImageFix"/>
<feColorMatrix in="SourceAlpha" type="matrix" values="0 0 0 0 0 0 0 0 0 0 0 0 0 0 0 0 0 0 127 0" result="hardAlpha"/>
<feOffset dy="4"/>
<feGaussianBlur stdDeviation="2"/>
<feComposite in2="hardAlpha" operator="out"/>
<feColorMatrix type="matrix" values="0 0 0 0 0 0 0 0 0 0 0 0 0 0 0 0 0 0 0.25 0"/>
<feBlend mode="normal" in2="BackgroundImageFix" result="effect1_dropShadow_3_44"/>
<feBlend mode="normal" in="SourceGraphic" in2="effect1_dropShadow_3_44" result="shape"/>
</filter>
</defs>
</svg>
