<svg width="59" height="62" viewBox="0 0 59 62" fill="none" xmlns="http://www.w3.org/2000/svg">
<g filter="url(#filter0_d_142_54)">
<path d="M22.375 30.875C20.8075 31.6587 19.5013 32.8225 18.5275 34.2713C17.9813 35.1025 17.9813 36.1475 18.5275 36.9787C19.5013 38.4275 20.8075 39.5912 22.375 40.375" stroke="white" stroke-width="3" stroke-linecap="round" stroke-linejoin="round"/>
<path d="M37.1238 30.875C38.6913 31.6587 39.9975 32.8225 40.9713 34.2713C41.5175 35.1025 41.5175 36.1475 40.9713 36.9787C39.9975 38.4275 38.6913 39.5912 37.1238 40.375" stroke="white" stroke-width="3" stroke-linecap="round" stroke-linejoin="round"/>
<path d="M5.75 30.875V35.625C5.75 47.5 10.5 52.25 22.375 52.25H36.625C48.5 52.25 53.25 47.5 53.25 35.625V21.375C53.25 9.5 48.5 4.75 36.625 4.75H22.375C10.5 4.75 5.75 9.5 5.75 21.375" stroke="white" stroke-width="3" stroke-linecap="round" stroke-linejoin="round"/>
<path d="M6.29625 19.0237L51.9437 19" stroke="white" stroke-width="3" stroke-linecap="round" stroke-linejoin="round"/>
</g>
<defs>
<filter id="filter0_d_142_54" x="-3" y="0" width="65" height="65" filterUnits="userSpaceOnUse" color-interpolation-filters="sRGB">
<feFlood flood-opacity="0" result="BackgroundImageFix"/>
<feColorMatrix in="SourceAlpha" type="matrix" values="0 0 0 0 0 0 0 0 0 0 0 0 0 0 0 0 0 0 127 0" result="hardAlpha"/>
<feOffset dy="4"/>
<feGaussianBlur stdDeviation="2"/>
<feComposite in2="hardAlpha" operator="out"/>
<feColorMatrix type="matrix" values="0 0 0 0 0 0 0 0 0 0 0 0 0 0 0 0 0 0 0.25 0"/>
<feBlend mode="normal" in2="BackgroundImageFix" result="effect1_dropShadow_142_54"/>
<feBlend mode="normal" in="SourceGraphic" in2="effect1_dropShadow_142_54" result="shape"/>
</filter>
</defs>
</svg>
